<?xml version="1.0" encoding="utf-8"?>
<!-- Generator: Adobe Illustrator 27.5.0, SVG Export Plug-In . SVG Version: 6.00 Build 0)  -->
<svg version="1.1" xmlns="http://www.w3.org/2000/svg" xmlns:xlink="http://www.w3.org/1999/xlink" x="0px" y="0px"
	 viewBox="0 0 500 500" style="enable-background:new 0 0 500 500;" xml:space="preserve">
<g id="Floor">
	<path id="Floor_00000122713484334062779460000005881537050900255632_" style="fill:#FAFAFA;" d="M94.953,259.004
		C9.326,308.441,9.328,388.595,94.958,438.032s224.461,49.437,310.089,0c85.627-49.437,85.625-129.591-0.005-179.028
		S180.581,209.567,94.953,259.004z"/>
</g>
<g id="Shadows">
	<path id="Shadow_00000102508788745388527000000016262380931267395994_" style="fill:#E0E0E0;" d="M263.361,328.787
		c0.045,0.095,0.089,0.189,0.136,0.283c0.032,0.062,0.061,0.126,0.094,0.187c0.082,0.158,0.175,0.311,0.264,0.466
		c0.091,0.159,0.181,0.317,0.279,0.473c0.121,0.192,0.252,0.377,0.384,0.563c0.105,0.148,0.207,0.297,0.318,0.44
		c0.143,0.184,0.297,0.361,0.45,0.538c0.117,0.135,0.229,0.272,0.351,0.402c0.168,0.179,0.349,0.348,0.528,0.518
		c0.123,0.117,0.24,0.238,0.368,0.35c0.208,0.182,0.43,0.352,0.652,0.522c0.115,0.088,0.222,0.182,0.34,0.267
		c0.309,0.222,0.633,0.429,0.967,0.626c0.032,0.02,0.062,0.042,0.094,0.061l0.017,0.01c0.002,0.001,0.004,0.002,0.006,0.003
		c0.001,0,0.001,0.001,0.002,0.001c0.001,0,0.002,0.001,0.002,0.001l50.665,29.251c0.027,0.898,0.117,1.741,0.281,2.51
		c0.473,2.223,1.492,3.894,2.914,4.914l-0.024,0.042l0,0l-0.001,0.003l60.033,34.636c-0.011-0.006-0.019-0.014-0.03-0.021
		l0.027,0.016c0.858,0.495,1.837,0.777,2.912,0.831c1.432,0.071,3.031-0.264,4.73-1.046c0.425-0.195,0.855-0.419,1.292-0.671
		c0.418-0.241,0.83-0.506,1.237-0.787c0.141-0.097,0.277-0.206,0.417-0.308c0.263-0.192,0.527-0.384,0.785-0.592
		c0.167-0.134,0.329-0.278,0.493-0.418c0.111-0.095,0.223-0.186,0.333-0.283l0.69,0.398c0.092,0.053,0.19,0.093,0.288,0.136
		c0.054,0.024,0.105,0.055,0.161,0.076c0.056,0.021,0.117,0.032,0.175,0.05c0.05,0.015,0.099,0.03,0.15,0.043
		c0.022,0.005,0.042,0.013,0.064,0.018c0.033,0.008,0.064,0.021,0.098,0.028c0.097,0.02,0.199,0.026,0.3,0.037
		c0.074,0.008,0.145,0.024,0.221,0.027c0.256,0.013,0.526-0.01,0.802-0.051c0.046-0.007,0.091-0.013,0.137-0.021
		c0.276-0.048,0.558-0.118,0.849-0.22c0,0,0.001,0,0.001,0l0,0c0.189-0.066,0.381-0.141,0.576-0.231
		c0.212-0.098,0.428-0.209,0.646-0.335c0.638-0.368,1.252-0.835,1.833-1.373l4.481,2.586l0,0c0,0,0,0,0.001,0
		c0.007,0.004,0.015,0.005,0.022,0.009c0.114,0.063,0.238,0.108,0.369,0.138c0.009,0.002,0.016,0.008,0.025,0.009
		c0.008,0.002,0.015,0.007,0.024,0.009c0.038,0.008,0.083,0.002,0.123,0.007c0.085,0.01,0.172,0.016,0.263,0.013
		c0.022,0,0.041,0.004,0.063,0.003c0.02-0.001,0.037,0.005,0.058,0.003c0.035-0.003,0.074-0.019,0.11-0.024
		c0.08-0.012,0.162-0.033,0.245-0.054c0.016-0.004,0.031-0.006,0.047-0.01c0.054-0.015,0.103-0.016,0.158-0.035
		c0.194-0.066,0.395-0.158,0.6-0.277c0.411-0.237,0.803-0.56,1.159-0.94c0.224-0.239,0.424-0.508,0.614-0.787
		c1.002,0.575,2.307,1.324,3.857,2.213c1.783,1.014,3.847,2.226,6.088,3.473c2.237,1.254,4.623,2.592,7.009,3.929
		c4.781,2.66,9.562,5.32,13.147,7.315c1.793,0.997,23.067,13.248,24.113,13.83c0.523,0.291,0.934,0.52,1.214,0.675
		c0.28,0.157,0.455,0.195,0.482,0.147l0,0c0.027-0.048-0.093-0.181-0.369-0.344c-0.275-0.164-0.679-0.406-1.192-0.713
		c-1.027-0.614-22.274-12.912-24.034-13.965c-3.521-2.107-8.216-4.915-12.911-7.724c-2.352-1.397-4.704-2.793-6.909-4.103
		c-2.201-1.316-4.283-2.497-6.053-3.533c-1.545-0.897-2.847-1.652-3.846-2.233c0.276-0.583,0.476-1.191,0.557-1.784
		c0.03-0.199,0.047-0.396,0.049-0.589c0-0.008,0.002-0.017,0.002-0.026c0-0.475-0.084-0.88-0.235-1.204
		c-0.002-0.005-0.006-0.009-0.009-0.014c-0.151-0.317-0.366-0.558-0.632-0.71l0,0l-4.481-2.586c0.176-0.772,0.272-1.538,0.272-2.274
		c0-0.252-0.011-0.494-0.033-0.727c-0.022-0.233-0.054-0.456-0.096-0.669c-0.05-0.254-0.119-0.49-0.197-0.715
		c-0.313-0.908-0.838-1.581-1.525-1.978l-0.696-0.402c0.278-1.363,0.44-2.715,0.44-4.018c0-0.459-0.023-0.898-0.06-1.325
		c-0.013-0.156-0.035-0.304-0.053-0.456c-0.031-0.257-0.065-0.511-0.108-0.755c-0.033-0.185-0.07-0.365-0.11-0.543
		c-0.042-0.184-0.088-0.363-0.138-0.539c-0.056-0.203-0.113-0.404-0.179-0.595c-0.035-0.1-0.075-0.194-0.113-0.291
		c-0.425-1.114-1.018-2.035-1.753-2.748c-0.001-0.001-0.001-0.002-0.002-0.002c-0.001-0.001-0.002-0.001-0.002-0.002
		c-0.364-0.352-0.75-0.67-1.179-0.918c-0.001-0.001-0.003-0.002-0.004-0.003l-60.029-34.634l-0.024,0.042
		c-1.27-0.575-2.772-0.713-4.42-0.398c-1.132,0.216-2.335,0.654-3.586,1.329l-50.671-29.255c0,0-0.001,0-0.001-0.001
		c-1.634-0.943-3.389-1.481-5.152-1.664c0.021,0.001,0.041-0.001,0.061,0c-0.153-0.017-0.306-0.018-0.459-0.029
		c-0.225-0.016-0.45-0.039-0.675-0.043c-0.08-0.002-0.16,0.006-0.24,0.005c-0.515-0.001-1.028,0.033-1.538,0.092
		c-0.177,0.021-0.355,0.035-0.531,0.063c-0.205,0.033-0.406,0.079-0.609,0.122c-0.186,0.039-0.373,0.074-0.558,0.121
		c-0.195,0.05-0.387,0.11-0.579,0.169c-0.189,0.057-0.377,0.114-0.562,0.18c-0.185,0.065-0.367,0.139-0.548,0.213
		c-0.189,0.077-0.376,0.155-0.561,0.241c-0.174,0.08-0.345,0.165-0.515,0.253c-0.187,0.097-0.371,0.198-0.554,0.304
		c-0.162,0.094-0.322,0.189-0.48,0.29c-0.185,0.118-0.365,0.243-0.544,0.371c-0.147,0.105-0.294,0.209-0.438,0.32
		c-0.184,0.143-0.361,0.296-0.538,0.45c-0.129,0.112-0.259,0.22-0.384,0.337c-0.189,0.178-0.368,0.368-0.548,0.559
		c-0.102,0.108-0.208,0.21-0.306,0.322c-0.236,0.269-0.46,0.552-0.676,0.844c-0.033,0.044-0.07,0.084-0.102,0.13
		c-0.245,0.34-0.473,0.695-0.688,1.064c-0.009,0.015-0.02,0.029-0.029,0.044c-0.062,0.107-0.109,0.219-0.167,0.327
		c-0.138,0.254-0.275,0.509-0.398,0.777c-0.012,0.027-0.029,0.053-0.041,0.08c0,0,0,0,0,0c0,0,0,0.001,0,0.001
		c-0.052,0.115-0.09,0.233-0.138,0.35c-0.116,0.276-0.228,0.555-0.328,0.844c-0.008,0.024-0.015,0.048-0.023,0.072
		c-0.105,0.31-0.21,0.619-0.295,0.943C261.679,323.103,262.078,326.144,263.361,328.787z"/>
	
		<ellipse id="Shadow_00000088818371914441074750000010584080944276769438_" style="fill:#E0E0E0;" cx="242.864" cy="428.705" rx="84.023" ry="48.511"/>
	<path id="Shadow_00000073683972285640057290000000565330735823327622_" style="fill:#E0E0E0;" d="M30.701,396.468
		c7.56,4.365,19.817,4.365,27.377,0c7.56-4.365,7.56-11.441,0-15.806c-7.56-4.365-19.816-4.365-27.376,0
		C23.141,385.027,23.142,392.103,30.701,396.468z"/>
	<path id="Shadow_00000140729395457028680230000004283888078465050808_" style="fill:#E0E0E0;" d="M63.898,420.394
		c7.56,4.365,19.817,4.365,27.377,0c7.56-4.365,7.56-11.441,0-15.806c-7.56-4.365-19.816-4.365-27.376,0
		C56.338,408.953,56.339,416.03,63.898,420.394z"/>
	<path id="Shadow_00000011003385062002887030000018219572404271190913_" style="fill:#E0E0E0;" d="M86.922,380.501
		c20.478,11.824,53.68,11.824,74.158,0.001c20.478-11.823,20.477-30.992-0.001-42.815c-20.477-11.823-53.679-11.823-74.157,0
		C66.444,349.509,66.445,368.678,86.922,380.501z"/>
	<path id="Shadow_00000074442755584822390690000015003735724669058488_" style="fill:#E0E0E0;" d="M455.745,365.452
		c0.096-0.4,0.194-0.793,0.183-1.193c0.003,0.017,0.01,0.032,0.013,0.049c0.057-1.192-0.541-2.418-2.006-3.284l-14.251-8.228
		c0,0-0.001,0-0.001-0.001c-0.432-0.25-1.645-1.139-5.27-1.147l-1.342-0.775l-97.411-56.24c0,0-0.001-0.001-0.001-0.001
		c-1.645-0.949-3.562-1.642-5.602-2.092c0.024,0.004,0.048,0.006,0.072,0.011c-6.316-1.445-13.983-0.287-18.223,2.785c0,0,0,0,0,0
		c-0.584,0.443-1.152,0.888-1.639,1.374c-1.88,1.894-2.376,4.058-1.691,6.112c0.571,1.84,2.141,3.56,4.42,4.887c0,0,0,0,0,0
		c0.003,0.001,0.005,0.003,0.007,0.004l68.042,39.284l15.532,8.967v0l6.905,3.987l6.206,3.583c0.105,0.061,1.902,1.098,2.067,1.194
		c0.024,1.163,0.599,2.239,1.989,3.045l0,0l3.012,1.739l11.239,6.489h0l0,0c2.352,1.336,5.969,1.358,9.094,0.864
		c5.553-0.859,11.208-3.413,14.863-6.439C453.741,368.932,455.196,367.246,455.745,365.452z"/>
</g>
<g id="Pills">
	<g id="Pills_00000126314228500365836870000000430079735164175760_">
		<g id="XMLID_00000132065213906874050940000006128575979488890551_">
			<path id="XMLID_00000013910303903439769530000000766958360840439479_" style="fill:#F0F0F0;" d="M61.735,379.454
				c-0.104-0.317-0.238-0.634-0.396-0.945c-0.127-0.25-0.274-0.499-0.438-0.743c-0.652-0.987-1.584-1.92-2.791-2.773v2.87
				l-2.474-1.438v-2.864c-6.875-3.255-17.042-3.023-23.459,0.683c-2.56,1.481-4.163,3.303-4.802,5.211
				c-0.055,0.165-0.104,0.323-0.14,0.482c-0.122,0.481-0.183,0.969-0.183,1.45v5.723c0,1.292,0.427,2.584,1.28,3.803
				c0.853,1.212,2.133,2.352,3.845,3.34c6.839,3.949,17.925,3.949,24.757,0c3.419-1.975,5.132-4.559,5.132-7.143v-5.723
				C62.064,380.74,61.955,380.088,61.735,379.454z"/>
			<path id="XMLID_00000013890440782765949100000000946196303318568882_" style="fill:#E6E6E6;" d="M50.043,371.788
				c-6.078-1.155-13.035-0.335-17.868,2.455c-2.56,1.481-4.163,3.303-4.802,5.211c-0.055,0.165-0.104,0.323-0.14,0.482
				c-0.122,0.481-0.183,0.969-0.183,1.45v5.723c0,1.292,0.427,2.584,1.28,3.803c0.853,1.212,2.133,2.352,3.845,3.34
				c4.836,2.793,11.79,3.601,17.868,2.444V371.788z"/>
			<g id="XMLID_00000004529577627977175870000001863441292817273275_">
				<path id="XMLID_00000162312363113402141060000013929007995473589924_" style="fill:#F5F5F5;" d="M32.177,374.242
					c-6.419,3.706-6.81,9.573-1.176,13.543l24.633-14.221C48.758,370.31,38.596,370.536,32.177,374.242z"/>
				<path id="XMLID_00000133527409814545240960000011849563166808860843_" style="fill:#FFFFFF;" d="M30.999,386.285
					c0,0-6.806-5.223,0.758-11.789c-6.01,3.716-6.263,9.408-0.756,13.289l24.633-14.221L30.999,386.285z"/>
				<path id="XMLID_00000026881055614470484580000013175553261092693635_" style="fill:#F5F5F5;" d="M58.111,374.993l-24.633,14.221
					c6.876,3.253,17.039,3.027,23.457-0.678S63.745,378.962,58.111,374.993z"/>
				<path id="XMLID_00000027603622811727529130000006921829379125990294_" style="fill:#FFFFFF;" d="M33.478,389.214
					c6.876,3.253,17.039,3.027,23.457-0.678c0.761-0.44,1.435-0.911,2.027-1.404c-12.595,6.309-22.729,1.863-22.729,1.863
					l21.878-14.002L33.478,389.214z"/>
			</g>
			<polygon id="XMLID_00000183955624180965153690000017462525778794957218_" style="fill:#E0E0E0;" points="55.634,376.425 
				30.999,390.717 31.001,387.785 55.634,373.564 			"/>
			<polygon id="XMLID_00000072242216805494228020000011860226940817207704_" style="opacity:0.2;" points="33.478,389.214 
				33.479,392.143 30.999,390.717 			"/>
		</g>
		<g id="XMLID_00000133490442102631143020000014698978635501143468_">
			<path id="XMLID_00000115501488458664334330000008370366061631694486_" style="fill:#F0F0F0;" d="M94.765,403.575
				c-0.104-0.317-0.238-0.634-0.396-0.945c-0.128-0.25-0.274-0.5-0.439-0.743c-0.653-0.987-1.585-1.92-2.791-2.773v2.87
				l-2.475-1.438v-2.865c-6.875-3.254-17.041-3.023-23.459,0.683c-2.56,1.481-4.162,3.304-4.803,5.211
				c-0.054,0.165-0.103,0.323-0.14,0.481c-0.122,0.482-0.183,0.969-0.183,1.451v5.723c0,1.292,0.426,2.585,1.28,3.803
				c0.853,1.213,2.133,2.353,3.846,3.34c6.839,3.949,17.925,3.949,24.757,0c3.419-1.975,5.132-4.559,5.132-7.144v-5.723
				C95.094,404.86,94.984,404.208,94.765,403.575z"/>
			<path id="XMLID_00000139260008466911748830000016711761783745851829_" style="fill:#E6E6E6;" d="M83.073,395.909
				c-6.078-1.155-13.035-0.336-17.868,2.454c-2.56,1.481-4.162,3.304-4.803,5.211c-0.054,0.165-0.103,0.323-0.14,0.481
				c-0.122,0.482-0.183,0.969-0.183,1.451v5.723c0,1.292,0.426,2.585,1.28,3.803c0.853,1.213,2.133,2.353,3.846,3.34
				c4.836,2.792,11.79,3.6,17.868,2.444V395.909z"/>
			<g id="XMLID_00000023242718819801742340000018012532224708814250_">
				<path id="XMLID_00000157276435559071906860000002927692746058251393_" style="fill:#F5F5F5;" d="M65.207,398.363
					c-6.418,3.706-6.81,9.573-1.176,13.543l24.633-14.222C81.787,394.431,71.626,394.657,65.207,398.363z"/>
				<path id="XMLID_00000183209233475785633940000005317166087930714518_" style="fill:#FFFFFF;" d="M64.028,410.406
					c0,0-6.806-5.223,0.759-11.789c-6.01,3.715-6.264,9.408-0.756,13.289l24.633-14.222L64.028,410.406z"/>
				<path id="XMLID_00000058575060580888057460000017893540001210575795_" style="fill:#F5F5F5;" d="M91.14,399.113l-24.633,14.222
					c6.876,3.253,17.038,3.027,23.457-0.678C96.383,408.95,96.774,403.083,91.14,399.113z"/>
				<path id="XMLID_00000130628015310491309900000011617096691870186654_" style="fill:#FFFFFF;" d="M66.507,413.335
					c6.876,3.253,17.038,3.027,23.457-0.678c0.761-0.44,1.435-0.91,2.027-1.404c-12.595,6.309-22.729,1.863-22.729,1.863
					l21.878-14.003L66.507,413.335z"/>
			</g>
			<polygon id="XMLID_00000070087737054437776530000002837804200574306454_" style="fill:#E0E0E0;" points="88.663,400.545 
				64.028,414.838 64.031,411.906 88.663,397.684 			"/>
			<polygon id="XMLID_00000006697265629854802670000017907904657670482052_" style="opacity:0.2;" points="66.507,413.335 
				66.509,416.264 64.028,414.838 			"/>
		</g>
	</g>
</g>
<g id="Medicine_bottle">
	<g id="Pill_Bottle_00000167356801570901737190000010596008945736015266_">
		<path id="XMLID_00000005233260663251276950000013958965609233108658_" style="fill:#BA68C8;" d="M169.101,279.499
			c0-6.665-4.404-13.331-13.213-18.416c-17.617-10.172-46.179-10.172-63.796,0c-8.809,5.085-13.213,11.751-13.213,18.416l0,0v76.689
			l0,0c0,6.666,4.405,13.331,13.213,18.417c17.617,10.171,46.18,10.171,63.796,0c8.808-5.086,13.213-11.751,13.212-18.417l0,0
			V279.499z"/>
		<path id="XMLID_00000119839091659287961970000005223366773784996287_" style="opacity:0.4;fill:#FFFFFF;" d="M151.758,258.996
			v117.696c1.426-0.646,2.817-1.329,4.131-2.087c2.874-1.659,5.23-3.499,7.167-5.44V266.523c-1.937-1.941-4.293-3.781-7.167-5.44
			C154.575,260.324,153.184,259.641,151.758,258.996z"/>
		<path id="XMLID_00000151520099201930376900000009257854676170405288_" style="opacity:0.4;fill:#FFFFFF;" d="M139.938,380.533
			c2.227-0.485,4.392-1.081,6.49-1.778V256.932c-2.098-0.696-4.262-1.293-6.49-1.778V380.533z"/>
		<path style="opacity:0.1;" d="M168.317,274.693c-2.336-3.318-5.833-6.427-10.495-9.119c-17.387-10.039-44.816-10.723-63.6-2.079
			c0-1.185,0-2.36,0-3.524c-0.716,0.365-1.446,0.716-2.13,1.112c-8.809,5.085-13.213,11.751-13.212,18.416v14.735v2.895
			c0-0.001-0.001-0.003-0.001-0.004v33.809c0,0.001,0.001,0.003,0.001,0.004v25.25c0,6.666,4.403,13.331,13.212,18.417
			c17.617,10.171,46.18,10.171,63.796,0c3.298-1.904,5.978-4.03,8.041-6.294c-8.392,7.836-29.275,12.149-44.79,9.095
			c-15.514-3.055-24.917-12.951-24.917-19.987c0-1.042,0-3.432,0-6.834c8.698,4.715,20.077,6.956,31.206,6.957v-34.371
			c-11.129-0.001-22.508-1.724-31.206-6.402c0-3.26,0-6.618,0-10.05c18.784,8.645,46.213,7.96,63.6-2.078
			c5.256-3.035,8.979-6.609,11.278-10.406v-14.736C169.101,277.889,168.831,276.28,168.317,274.693z"/>
		<path id="XMLID_00000104675999639102050730000015088525423640814726_" style="opacity:0.1;" d="M86.498,359.417
			c0-4.187,0-68.984,0-94.396c-5.07,4.367-7.619,9.421-7.619,14.478v76.689c0,6.666,4.405,13.331,13.213,18.417
			c4.993,2.882,10.88,4.919,17.133,6.167C92.273,376.182,86.498,364.602,86.498,359.417z"/>
		<path id="XMLID_00000003791956216348359330000012457635764372925593_" style="fill:#E0E0E0;" d="M171.836,258.897
			c0-7.07-4.671-14.139-14.014-19.533c-18.685-10.788-48.979-10.788-67.665-0.001c-9.342,5.394-14.014,12.464-14.014,19.534h-0.002
			v21.208h0.002c0,7.07,4.671,14.139,14.014,19.533c18.685,10.788,48.979,10.788,67.665,0.001
			c9.342-5.394,14.014-12.464,14.014-19.534l0,0V258.897L171.836,258.897z"/>
		<g id="XMLID_00000098925419581374760800000011513729502010415249_">
			<path id="XMLID_00000160871432964517074710000000179876479054976922_" style="opacity:0.1;" d="M135.441,306.897
				c-23.677,0.129-36.174-7.556-39.967-13.833c-2.884-4.773-3.382-13.579-3.382-22.309c0,0-2.671-19.887-2.152-19.949
				c0.322-0.039-5.679-1.337-10.282-2.318c-2.342,3.33-3.514,6.869-3.514,10.409h-0.002v21.208h0.002
				c0,7.07,4.671,14.139,14.014,19.533C102.438,306.728,119.723,309.127,135.441,306.897z"/>
			<g style="opacity:0.1;">
				<path d="M98.872,303.614c-0.777-0.277-1.542-0.569-2.296-0.874v-27.414h2.296V303.614z"/>
				<path d="M108.717,306.284c-0.771-0.15-1.537-0.31-2.297-0.483v-27.647h2.297V306.284z"/>
				<path d="M80.575,291.733v-26.895h2.296v29.4C82.028,293.421,81.26,292.585,80.575,291.733z"/>
				<path d="M119.228,307.59c-0.768-0.044-1.533-0.099-2.297-0.164v-27.862h2.297V307.59z"/>
				<path d="M87.661,298.069v-27.127h2.297v28.574C89.155,299.047,88.394,298.563,87.661,298.069z"/>
				<path d="M77.293,286.102c-0.757-1.974-1.149-3.985-1.149-5.997h-0.002v-21.208h0.002c0-1.312,0.162-2.625,0.485-3.927h0.665
					V286.102z"/>
				<path d="M140.59,306.013c-0.76,0.162-1.526,0.313-2.297,0.452v-28.139h2.297V306.013z"/>
				<path d="M171.836,280.105c0,2.012-0.392,4.022-1.149,5.996v-29.168h1.015c0.08,0.654,0.134,1.308,0.134,1.963V280.105z"/>
				<path d="M167.701,291.34c-0.683,0.886-1.445,1.755-2.297,2.604v-28.103h2.297V291.34z"/>
				<path d="M159.719,298.474c-0.611,0.396-1.24,0.785-1.897,1.165c-0.131,0.076-0.268,0.145-0.4,0.219v-27.89h2.297V298.474z"/>
				<path d="M150.611,303.06c-0.756,0.293-1.52,0.576-2.297,0.841v-28.121h2.297V303.06z"/>
				<path d="M129.99,307.505c-0.764,0.056-1.53,0.1-2.297,0.134v-28.035h2.297V307.505z"/>
			</g>
		</g>
		<path id="XMLID_00000081649951750021189320000009694250284938580878_" style="fill:#EBEBEB;" d="M90.158,278.43
			c18.685,10.788,48.979,10.788,67.665,0c18.685-10.788,18.685-28.279,0-39.066c-18.685-10.788-48.98-10.788-67.665-0.001
			C71.473,250.151,71.473,267.642,90.158,278.43z"/>
		<path id="XMLID_00000181087388670768817820000018042532935383351180_" style="fill:#F5F5F5;" d="M160.393,276.788
			c16.033-10.853,15.2-27.164-2.57-37.424c-9.108-5.259-20.976-7.934-32.911-8.066c-6.391,1.083-12.416,3.066-17.461,5.95
			c-16.152,9.234-16.152,27.669,0.001,36.904C121.867,282.394,144.259,283.258,160.393,276.788z"/>
		<path id="XMLID_00000063590871613310731420000015206071103297554322_" style="opacity:0.1;" d="M94.688,372.549
			c16.183,8.132,42.421,8.132,58.604,0c16.182-8.132,16.182-21.317-0.001-29.449c-16.183-8.132-42.421-8.132-58.603,0
			C78.505,351.232,78.506,364.417,94.688,372.549z"/>
		<path id="XMLID_00000074410572628459259660000010701651623902750618_" style="fill:#FFFFFF;" d="M78.879,299.36
			c0,6.665,4.405,13.331,13.213,18.416c8.808,5.086,20.353,7.628,31.898,7.628l-0.001,33.809c-11.545,0-23.089-2.543-31.897-7.628
			c-8.808-5.086-13.213-11.751-13.213-18.416V299.36z"/>
		<path id="XMLID_00000155850412768386676950000018393452417169165983_" style="fill:#FFFFFF;" d="M79.8,269.501
			c0,0,15.564,15.666,45.629,14.848c30.064-0.818,42.085-17.234,43.672-22.325c1.587-5.09,0.577-11.712-4.055-17.32
			c4.03,3.784,6.745,8.751,6.79,14.193c0,7.946,0,21.208,0,21.208c0,1.788,0.923,7.958-8.781,15.948c0,0,5.691-6.469,5.691-12.686
			s0-14.657,0-14.657s-10.638,17.795-43.317,17.795C92.749,286.505,81.449,272.171,79.8,269.501z"/>
	</g>
</g>
<g id="Test_Tube">
	<g id="Test_tube_00000174564993028902092540000009178320019981288847_">
		<g id="XMLID_00000008843655231738196420000017935423257516184476_">
			<g>
				<path style="fill:#BA68C8;" d="M432.617,338.219c1.674,0.966,2.709,3.039,2.709,5.988c0,5.898-4.141,13.071-9.249,16.02
					c-2.554,1.475-4.866,1.614-6.54,0.648l-101.109-58.375c-0.001-0.001-0.002-0.001-0.003-0.002
					c-6.256-3.612-8.4-11.611-4.788-17.867c3.612-6.256,11.61-8.399,17.866-4.789c0.001,0,0.001,0.001,0.002,0.001L432.617,338.219z
					"/>
				<path style="opacity:0.7;fill:#FFFFFF;" d="M432.617,338.219c1.674,0.966,2.709,3.039,2.709,5.988
					c0,5.898-4.141,13.071-9.249,16.02c-2.554,1.475-4.866,1.614-6.54,0.648l-101.109-58.375c-0.001-0.001-0.002-0.001-0.003-0.002
					c-6.256-3.612-8.4-11.611-4.788-17.867c3.612-6.256,11.61-8.399,17.866-4.789c0.001,0,0.001,0.001,0.002,0.001L432.617,338.219z
					"/>
				<path style="fill:#BA68C8;" d="M411.63,330.629c1.172,0.677,1.897,2.128,1.897,4.194c0,4.131-2.9,9.154-6.477,11.219
					c-1.789,1.033-3.408,1.13-4.58,0.453l-81.679-47.158c-0.001,0-0.001-0.001-0.002-0.001c-4.381-2.53-5.882-8.132-3.353-12.513
					c2.529-4.381,8.131-5.882,12.512-3.354c0,0,0.001,0,0.001,0.001L411.63,330.629z"/>
				<path style="opacity:0.1;" d="M317.436,286.823c2.451-4.246,7.785-5.775,12.1-3.565c-2.697-0.676-5.622,0.47-7.081,2.998
					c-1.763,3.054-0.717,6.96,2.337,8.723c0.001,0,0.001,0.001,0.002,0.001l84.818,48.97c-0.786,0.845-1.651,1.566-2.561,2.091
					c-1.789,1.033-3.408,1.13-4.58,0.453l-81.679-47.158c-0.001,0-0.001-0.001-0.002-0.001
					C316.408,296.807,314.906,291.204,317.436,286.823z"/>
				<path style="fill:#BA68C8;" d="M411.63,330.629c-2.527-1.459-6.626,0.91-9.156,5.291c-2.53,4.381-2.532,9.116-0.005,10.575
					c2.527,1.459,6.626-0.91,9.156-5.291C414.156,336.823,414.158,332.088,411.63,330.629z"/>
				<path style="opacity:0.3;fill:#FFFFFF;" d="M411.63,330.629c-2.527-1.459-6.626,0.91-9.156,5.291
					c-2.53,4.381-2.532,9.116-0.005,10.575c2.527,1.459,6.626-0.91,9.156-5.291C414.156,336.823,414.158,332.088,411.63,330.629z"/>
				<path style="opacity:0.5;fill:#FFFFFF;" d="M411.63,330.629c1.26,0.728,1.891,2.271,1.893,4.178
					c-0.078-0.314-1.932-5.665-6.919-1.836c-5.35,4.109-5.962,10.313-5.176,12.539c-1.41-2.04-1.065-5.934,1.045-9.59
					C405.004,331.539,409.104,329.17,411.63,330.629z"/>
				<path id="XMLID_00000173863958163271923680000004286673889256636832_" style="opacity:0.4;fill:#FFFFFF;" d="M325.873,282.397
					c-1.122-0.647-1.277-1.633-0.305-2.124c0.972-0.491,2.711-0.269,3.833,0.379l105.598,60.967
					c0.207,0.767,0.327,1.626,0.327,2.588c0,0.44-0.03,0.888-0.075,1.34L325.873,282.397z"/>
				<path id="XMLID_00000153698346926909806480000011125256159510700954_" style="opacity:0.4;fill:#FFFFFF;" d="M321.812,282.958
					c0.018-0.018,0.036-0.036,0.054-0.053c0.369-0.364,1.049-0.431,1.497-0.172l111.633,64.451
					c-0.129,0.628-0.293,1.258-0.494,1.887l-112.526-64.967C321.527,283.846,321.444,283.323,321.812,282.958z"/>
				<path style="opacity:0.2;fill:#BA68C8;" d="M424.668,337.406c1.524-0.88,2.961-1.297,4.248-1.324l3.7,2.136
					c0.404,0.233,0.769,0.535,1.093,0.894c0.495,1.067,0.768,2.396,0.768,3.957c0,5.822-3.805,12.808-8.698,16.272
					c0.297,0.172,0.593,0.342,0.885,0.511c-0.045,0.03-0.091,0.058-0.137,0.087c-0.15,0.098-0.299,0.199-0.451,0.287
					c-1.117,0.645-2.189,1.035-3.18,1.188c-0.708,0.109-1.376,0.098-1.991-0.026c-0.492-0.1-0.95-0.272-1.369-0.514l-3.7-2.136
					l-0.727-0.42l0,0l-13.11-7.569l0,0l-83.574-48.252l-0.025-0.015c-4.97-2.965-7.642-8.843-6.162-14.438
					c1.811-6.845,8.038-10.539,14.142-9.878c-5.024-0.25-9.783,4.138-11.174,9.494c-0.006,0.022-0.011,0.044-0.017,0.066
					c-0.812,3.189,0.689,6.521,3.539,8.167l96.419,55.667C416.188,345.995,420.049,340.073,424.668,337.406z"/>
				<path style="opacity:0.1;" d="M313.027,285.822C313.027,285.822,313.027,285.822,313.027,285.822
					c-2.749,7.813,2.283,12.326,5.691,14.294c1.051,0.607,99.158,57.249,105.555,60.942c-0.073,0.025-0.145,0.046-0.217,0.069
					c-0.817,0.261-1.595,0.38-2.316,0.354c-0.04-0.002-0.08-0.005-0.12-0.007c-0.145-0.008-0.287-0.023-0.427-0.043
					c-0.05-0.007-0.099-0.014-0.148-0.023c-0.336-0.058-0.658-0.148-0.962-0.272c-0.035-0.014-0.071-0.029-0.106-0.044
					c-0.151-0.066-0.298-0.137-0.44-0.219l-3.7-2.136l-0.727-0.42l0,0l-13.11-7.569l0,0l-83.574-48.252
					c-0.003-0.001-0.005-0.003-0.008-0.004C312.558,299.105,310.311,291.867,313.027,285.822z"/>
			</g>
			<g>
				<path id="XMLID_00000105408724505829125810000004350783786886548645_" style="fill:#E0E0E0;" d="M449.087,345.54
					c1.916,1.106,3.102,3.479,3.102,6.855c0,6.753-4.741,14.965-10.589,18.342c-2.924,1.688-5.572,1.848-7.488,0.742l0,0.001
					l-14.251-8.228l0,0c-1.916-1.106-3.101-3.479-3.101-6.856c0-6.753,4.741-14.965,10.589-18.342
					c2.924-1.688,5.572-1.848,7.488-0.742l0,0L449.087,345.54L449.087,345.54z"/>
				<path id="XMLID_00000109712355760821114390000002770731003024318133_" style="opacity:0.1;" d="M421.878,342.984
					c-3.74,6.398-3.613,10.988-2.505,12.999c0.842,1.529,11.654,7.951,14.02,9.317c0,0,4.973,3.836,5.071,3.705
					c0.061-0.081-0.526,1.749-0.981,3.15c-1.269,0.114-2.412-0.122-3.371-0.676l0,0.001l-14.251-8.228l0,0
					c-1.916-1.106-3.101-3.479-3.101-6.856C416.759,351.957,418.813,346.896,421.878,342.984z"/>
				<g style="opacity:0.2;">
					<path d="M419.186,347.291c-0.108,0.215-0.223,0.426-0.325,0.643l16.031,9.256l0.359-0.623L419.186,347.291z"/>
					<path d="M417.892,350.341c-0.079,0.229-0.182,0.455-0.253,0.684l15.991,9.232l0.36-0.623L417.892,350.341z"/>
					<path d="M417.063,353.421c-0.047,0.255-0.086,0.507-0.121,0.76l15.913,9.187l0.359-0.622L417.063,353.421z"/>
					<path d="M416.766,356.471c0.002,0.315,0.059,0.58,0.081,0.877l15.803,9.124l0.359-0.623L416.766,356.471z"/>
					<path d="M418.466,362.03c0.408,0.493,0.866,0.915,1.394,1.221l0,0l14.251,8.228l0,0c0.357,0.206,0.762,0.321,1.166,0.438
						l0.078-0.135L418.466,362.03z"/>
					<path d="M417.46,360.264l15.734,9.084l0.359-0.623l-16.418-9.479C417.228,359.602,417.333,359.945,417.46,360.264z"/>
					<path d="M420.889,344.384c-0.135,0.198-0.264,0.4-0.394,0.603l16.071,9.278l0.359-0.622L420.889,344.384z"/>
					<path d="M431.183,336.697c-0.337,0.043-0.69,0.137-1.042,0.228l16.058,9.271l0.359-0.622L431.183,336.697z"/>
					<path d="M428.008,337.749c-0.223,0.112-0.434,0.174-0.66,0.304c-0.039,0.022-0.075,0.056-0.114,0.079l16.054,9.269l0.359-0.623
						L428.008,337.749z"/>
					<path d="M434.836,337.312c-0.529-0.305-1.124-0.491-1.754-0.597l16.358,9.444l0.129-0.223
						c-0.165-0.125-0.303-0.293-0.481-0.396L434.836,337.312z"/>
					<path d="M425.297,339.476c-0.193,0.156-0.372,0.34-0.562,0.506l16.094,9.292l0.359-0.623L425.297,339.476z"/>
					<path d="M422.941,341.737c-0.161,0.179-0.309,0.376-0.466,0.561l16.096,9.293l0.359-0.623L422.941,341.737z"/>
				</g>
				<path id="XMLID_00000009553029326965358350000002081622781502274743_" style="fill:#EBEBEB;" d="M431.01,364.623
					c0-6.753,4.741-14.965,10.59-18.342c5.848-3.376,10.59-0.639,10.59,6.114c0,6.753-4.741,14.965-10.589,18.342
					C435.751,374.114,431.01,371.376,431.01,364.623z"/>
				<path id="XMLID_00000107549109547013756410000013745682996044254603_" style="fill:#F5F5F5;" d="M442.447,345.842
					c5.451-2.647,9.742,0.131,9.742,6.554c0,3.292-1.132,6.927-2.964,10.183c-1.294,1.563-2.774,2.886-4.346,3.802
					c-5.031,2.933-10.028,0.048-10.003-5.776C434.898,355.407,438.168,349.203,442.447,345.842z"/>
				<path id="XMLID_00000134971396070147909130000016756078615005265560_" style="fill:#455A64;" d="M436.999,361.165
					c0-2.934,2.06-6.501,4.601-7.968c2.541-1.467,4.6-0.278,4.6,2.656c0,2.934-2.06,6.502-4.6,7.968
					C439.059,365.288,436.999,364.099,436.999,361.165z"/>
				<path id="XMLID_00000073702868509469146020000017686137900495723170_" style="fill:#FFFFFF;" d="M431.809,368.828
					c0,0-1.811-6.671,3.116-14.692c4.927-8.021,11.258-8.711,12.886-8.344c1.628,0.367,3.265,1.677,4.06,3.81
					c-0.395-1.685-1.316-3.198-2.784-4.062c-2.154-1.244-14.251-8.228-14.251-8.228c-0.485-0.28-2.013-1.496-5.697-0.116
					c0,0,2.644-0.53,4.329,0.443c1.685,0.973,12.475,7.203,12.475,7.203s-6.488,0.098-11.603,8.957S431.343,367.963,431.809,368.828
					z"/>
			</g>
		</g>
		<g id="Label_00000020401291271459039760000005264280888327269800_">
			<path style="opacity:0.1;" d="M381.829,323.275c-2.098,3.634-3.016,7.425-2.744,10.401l-43.094-24.88
				c-0.263-2.971,0.655-6.762,2.753-10.396c1.015-1.758,2.201-3.294,3.453-4.548l43.085,24.875
				C384.03,319.982,382.843,321.518,381.829,323.275z"/>
			<path style="fill:#FAFAFA;" d="M382.359,324.306c-2.061,3.569-2.945,7.302-2.652,10.241l-43.094-24.88
				c-0.284-2.934,0.6-6.667,2.661-10.236c0.997-1.726,2.166-3.233,3.403-4.461l43.085,24.875
				C384.526,321.073,383.356,322.58,382.359,324.306z"/>
			<g>
				<path style="fill:#E0E0E0;" d="M338.357,308.505c-0.143,0.248-0.059,0.566,0.19,0.709l38.379,22.158
					c0.249,0.143,0.566,0.059,0.709-0.19c0.143-0.249,0.058-0.566-0.19-0.709l-38.379-22.158
					C338.817,308.172,338.5,308.257,338.357,308.505z"/>
			</g>
			<g>
				<path style="fill:#E0E0E0;" d="M339.685,303.99c-0.143,0.248-0.059,0.565,0.19,0.709l38.379,22.158
					c0.249,0.144,0.566,0.059,0.709-0.19c0.143-0.248,0.059-0.565-0.19-0.709L340.393,303.8
					C340.145,303.657,339.828,303.742,339.685,303.99z"/>
			</g>
			<g>
				<path style="fill:#E0E0E0;" d="M341.939,299.433c-0.143,0.249-0.059,0.566,0.19,0.709l38.379,22.158
					c0.249,0.143,0.566,0.058,0.709-0.19c0.144-0.248,0.059-0.566-0.19-0.709l-38.379-22.158
					C342.4,299.1,342.083,299.185,341.939,299.433z"/>
			</g>
		</g>
	</g>
</g>
<g id="Syringe">
	<g id="Syringe_1_">
		<g id="XMLID_00000116193478823863729860000014227323739414502276_">
			<g>
				<path style="fill:#BA68C8;" d="M384.424,361.981c1.663,0.96,2.692,3.019,2.692,5.949c0,5.861-4.114,12.987-9.19,15.917
					c-2.538,1.465-4.835,1.604-6.498,0.644L270.966,326.49c-0.001-0.001-0.002-0.001-0.003-0.002
					c-6.216-3.589-8.346-11.537-4.757-17.753c3.589-6.216,11.536-8.345,17.752-4.758c0.001,0,0.001,0.001,0.002,0.001
					L384.424,361.981z"/>
				<path style="opacity:0.7;fill:#FFFFFF;" d="M384.424,361.981c1.663,0.96,2.692,3.019,2.692,5.949
					c0,5.861-4.114,12.987-9.19,15.917c-2.538,1.465-4.835,1.604-6.498,0.644L270.966,326.49c-0.001-0.001-0.002-0.001-0.003-0.002
					c-6.216-3.589-8.346-11.537-4.757-17.753c3.589-6.216,11.536-8.345,17.752-4.758c0.001,0,0.001,0.001,0.002,0.001
					L384.424,361.981z"/>
				<path style="fill:#BA68C8;" d="M363.573,354.439c1.165,0.672,1.885,2.114,1.885,4.167c0,4.104-2.881,9.095-6.436,11.147
					c-1.777,1.026-3.386,1.123-4.551,0.451l-81.157-46.856c-0.001,0-0.001-0.001-0.002-0.001c-4.353-2.513-5.845-8.08-3.331-12.433
					c2.513-4.353,8.079-5.845,12.432-3.332c0,0,0.001,0,0.001,0.001L363.573,354.439z"/>
				<path style="opacity:0.1;" d="M269.98,310.914c2.436-4.219,7.735-5.738,12.023-3.542c-2.68-0.672-5.586,0.467-7.036,2.978
					c-1.752,3.035-0.712,6.915,2.322,8.667c0.001,0,0.001,0.001,0.001,0.001l84.275,48.656c-0.781,0.84-1.64,1.556-2.545,2.078
					c-1.777,1.026-3.386,1.123-4.551,0.451l-81.157-46.856c-0.001,0-0.001-0.001-0.002-0.001
					C268.958,320.833,267.467,315.267,269.98,310.914z"/>
				<path style="fill:#BA68C8;" d="M363.573,354.439c-2.511-1.45-6.584,0.904-9.097,5.257c-2.513,4.353-2.515,9.058-0.005,10.507
					c2.511,1.45,6.584-0.904,9.097-5.258C366.082,360.593,366.083,355.889,363.573,354.439z"/>
				<path style="opacity:0.3;fill:#FFFFFF;" d="M363.573,354.439c-2.511-1.45-6.584,0.904-9.097,5.257
					c-2.513,4.353-2.515,9.058-0.005,10.507c2.511,1.45,6.584-0.904,9.097-5.258C366.082,360.593,366.083,355.889,363.573,354.439z"
					/>
				<path style="opacity:0.5;fill:#FFFFFF;" d="M363.573,354.439c1.252,0.723,1.879,2.256,1.881,4.151
					c-0.077-0.313-1.92-5.629-6.874-1.824c-5.316,4.083-5.924,10.247-5.142,12.459c-1.401-2.026-1.059-5.896,1.038-9.528
					C356.989,355.343,361.062,352.99,363.573,354.439z"/>
				<path id="XMLID_369_" style="opacity:0.4;fill:#FFFFFF;" d="M278.363,306.516c-1.114-0.643-1.269-1.622-0.303-2.111
					c0.965-0.488,2.694-0.267,3.809,0.376l104.923,60.577c0.205,0.763,0.325,1.616,0.325,2.572c0,0.437-0.03,0.882-0.074,1.331
					L278.363,306.516z"/>
				<path id="XMLID_00000127032185203681768420000011862641523602685581_" style="opacity:0.4;fill:#FFFFFF;" d="M274.328,307.073
					c0.018-0.018,0.036-0.035,0.054-0.053c0.367-0.361,1.042-0.428,1.488-0.171l110.919,64.039c-0.129,0.624-0.292,1.25-0.491,1.875
					l-111.806-64.551C274.046,307.955,273.963,307.436,274.328,307.073z"/>
				<path style="opacity:0.2;fill:#BA68C8;" d="M376.527,361.173c1.514-0.874,2.942-1.288,4.221-1.315l3.677,2.123
					c0.402,0.232,0.764,0.531,1.086,0.888c0.491,1.06,0.763,2.381,0.763,3.932c0,5.784-3.78,12.727-8.643,16.168
					c0.296,0.171,0.589,0.34,0.879,0.508c-0.045,0.029-0.09,0.058-0.136,0.086c-0.149,0.098-0.297,0.198-0.448,0.285
					c-1.11,0.641-2.174,1.028-3.16,1.18c-0.704,0.109-1.367,0.098-1.978-0.026c-0.489-0.099-0.944-0.271-1.36-0.511l-3.677-2.123
					l-0.722-0.417l0,0l-13.026-7.521l0,0l-83.039-47.943l-0.025-0.015c-4.938-2.946-7.594-8.786-6.123-14.345
					c1.8-6.802,7.986-10.472,14.052-9.815c-4.992-0.249-9.72,4.112-11.102,9.433c-0.006,0.022-0.011,0.043-0.017,0.065
					c-0.807,3.169,0.685,6.48,3.517,8.115l95.802,55.311C368.101,369.707,371.937,363.823,376.527,361.173z"/>
				<path style="opacity:0.1;" d="M265.6,309.919C265.6,309.919,265.6,309.918,265.6,309.919
					c-2.731,7.763,2.269,12.247,5.655,14.202c1.045,0.603,98.524,56.883,104.879,60.552c-0.073,0.025-0.144,0.046-0.216,0.069
					c-0.812,0.26-1.585,0.378-2.301,0.352c-0.04-0.001-0.079-0.005-0.119-0.007c-0.144-0.008-0.285-0.023-0.425-0.042
					c-0.049-0.007-0.099-0.014-0.147-0.023c-0.334-0.057-0.654-0.147-0.956-0.27c-0.035-0.014-0.07-0.029-0.105-0.044
					c-0.15-0.065-0.297-0.136-0.438-0.217l-3.677-2.123l-0.722-0.417l0,0l-13.026-7.521c0,0,0,0,0,0l-83.039-47.943
					c-0.003-0.001-0.005-0.003-0.008-0.005C265.134,323.117,262.901,315.925,265.6,309.919z"/>
			</g>
			<g>
				<path id="XMLID_367_" style="fill:#E0E0E0;" d="M400.79,369.255c1.904,1.099,3.082,3.457,3.082,6.812
					c0,6.71-4.711,14.869-10.522,18.224c-2.906,1.677-5.536,1.836-7.44,0.737l0,0.001l-14.16-8.175l0,0
					c-1.904-1.099-3.082-3.457-3.082-6.812c0-6.71,4.711-14.869,10.522-18.224c2.905-1.677,5.536-1.836,7.44-0.737l0,0
					L400.79,369.255L400.79,369.255z"/>
				<g style="opacity:0.1;">
					<g>
						<path d="M382.975,360.454l15.301,8.834l-0.357,0.618l-16.002-9.239C382.278,360.572,382.631,360.499,382.975,360.454z"/>
						<path d="M385.909,395.028l-14.16-8.175l0,0c-0.535-0.309-1.006-0.728-1.416-1.23l16.813,9.707l-0.095,0.164
							C386.65,395.377,386.263,395.232,385.909,395.028L385.909,395.028z"/>
						<path d="M390.341,375.268l-16.024-9.252c0.158-0.186,0.32-0.366,0.482-0.546l15.899,9.179L390.341,375.268z"/>
						<path d="M376.574,363.72c0.191-0.167,0.38-0.336,0.575-0.493l15.794,9.119l-0.357,0.619L376.574,363.72z"/>
						<path d="M401.14,369.869l-16.284-9.401c0.64,0.104,1.238,0.302,1.773,0.611l14.16,8.175c0.177,0.102,0.34,0.226,0.504,0.349
							L401.14,369.869z"/>
						<path d="M379.19,361.816c0.21-0.121,0.415-0.217,0.621-0.323l15.574,8.992l-0.357,0.619l-15.957-9.213
							C379.111,361.868,379.15,361.839,379.19,361.816z"/>
						<path d="M368.837,377.833c0.035-0.251,0.076-0.502,0.122-0.754l16.06,9.272l-0.357,0.618L368.837,377.833z"/>
						<path d="M385.356,392.292l-0.357,0.619l-15.67-9.048c-0.125-0.318-0.232-0.655-0.322-1.011L385.356,392.292z"/>
						<path d="M384.813,389.434l-0.357,0.619l-15.747-9.092c-0.019-0.277-0.036-0.555-0.038-0.847L384.813,389.434z"/>
						<path d="M387.043,380.21l-0.357,0.619l-15.944-9.206c0.101-0.216,0.198-0.434,0.306-0.648L387.043,380.21z"/>
						<path d="M372.748,368.092l15.957,9.213l-0.357,0.619l-15.996-9.235C372.482,368.487,372.614,368.289,372.748,368.092z"/>
						<path d="M385.788,383.26l-0.357,0.619l-15.892-9.175c0.071-0.231,0.153-0.461,0.232-0.691L385.788,383.26z"/>
					</g>
				</g>
				<path id="XMLID_00000176765743116201732560000018013897614766367109_" style="opacity:0.1;" d="M373.754,366.715
					c-3.716,6.357-3.59,10.918-2.489,12.916c0.837,1.519,11.579,7.9,13.931,9.257c0,0,4.941,3.812,5.038,3.682
					c0.06-0.081-0.523,1.737-0.975,3.13c-1.261,0.113-2.396-0.122-3.35-0.672l0,0.001l-14.16-8.175l0,0
					c-1.904-1.099-3.082-3.457-3.082-6.812C368.668,375.63,370.71,370.602,373.754,366.715z"/>
				<path id="XMLID_00000138570831848900789210000006411107130472259767_" style="fill:#EBEBEB;" d="M382.828,388.216
					c0-6.71,4.711-14.869,10.522-18.224c5.811-3.355,10.522-0.635,10.522,6.075c0,6.71-4.711,14.869-10.522,18.224
					C387.539,397.646,382.828,394.926,382.828,388.216z"/>
				<path id="XMLID_00000161593247821551590570000017916299790402385287_" style="fill:#F5F5F5;" d="M394.192,369.554
					c5.416-2.63,9.68,0.13,9.68,6.512c0,3.271-1.125,6.883-2.945,10.118c-1.285,1.553-2.756,2.867-4.318,3.777
					c-4.999,2.914-9.964,0.048-9.939-5.739C386.691,379.059,389.94,372.894,394.192,369.554z"/>
				<path id="XMLID_00000165932125476650645120000015337952189495102603_" style="fill:#455A64;" d="M388.779,384.78
					c0-2.915,2.047-6.46,4.571-7.917c2.525-1.458,4.571-0.276,4.571,2.639c0,2.915-2.047,6.46-4.571,7.918
					C390.825,388.877,388.779,387.695,388.779,384.78z"/>
				<path id="XMLID_00000157995235175136836550000017340287015633762726_" style="fill:#FFFFFF;" d="M383.622,392.394
					c0,0-1.799-6.628,3.096-14.598c4.895-7.97,11.186-8.655,12.804-8.291c1.618,0.364,3.244,1.666,4.034,3.785
					c-0.393-1.674-1.308-3.177-2.767-4.036c-2.14-1.236-14.16-8.175-14.16-8.175c-0.482-0.278-2-1.486-5.66-0.115
					c0,0,2.627-0.527,4.302,0.44c1.674,0.967,12.396,7.157,12.396,7.157s-6.447,0.098-11.529,8.9
					C381.056,386.262,383.159,391.534,383.622,392.394z"/>
			</g>
		</g>
		<g>
			<g style="opacity:0.43;">
				<path id="XMLID_00000080898829845181975480000006253808759073245830_" style="fill:#BA68C8;" d="M406.392,375.071
					c0.001,8.056-5.653,17.854-12.629,21.884c-3.488,2.015-6.646,2.206-8.933,0.886l0,0l-60.029-34.634l0.024-0.042
					c-1.992-1.428-3.214-4.113-3.215-7.84c-0.002-8.056,5.652-17.854,12.629-21.884c3.228-1.864,6.164-2.15,8.397-1.139l0.024-0.042
					l60.03,34.634C404.977,368.212,406.392,371.042,406.392,375.071z"/>
				<path id="XMLID_00000158742755130273414560000003334226512352583578_" style="opacity:0.7;fill:#FFFFFF;" d="M406.392,375.071
					c0.001,8.056-5.653,17.854-12.629,21.884c-3.488,2.015-6.646,2.206-8.933,0.886l0,0l-60.029-34.634l0.024-0.042
					c-1.992-1.428-3.214-4.113-3.215-7.84c-0.002-8.056,5.652-17.854,12.629-21.884c3.228-1.864,6.164-2.15,8.397-1.139l0.024-0.042
					l60.03,34.634C404.977,368.212,406.392,371.042,406.392,375.071z"/>
				<g id="XMLID_324_">
					<path style="fill:#BA68C8;" d="M339.853,331.726c1.012,0,1.947,0.197,2.784,0.575l0.024-0.042l60.03,34.634
						c2.286,1.32,3.701,4.15,3.702,8.178c0.002,8.056-5.653,17.854-12.629,21.884c-2.028,1.171-3.945,1.726-5.643,1.726
						c-1.223,0-2.332-0.288-3.289-0.84l-60.029-34.634l0.024-0.042c-1.992-1.428-3.214-4.113-3.215-7.84
						c-0.002-8.056,5.652-17.854,12.629-21.884C336.259,332.275,338.163,331.726,339.853,331.726 M339.853,331.224
						c-1.844,0-3.817,0.6-5.864,1.782c-7.103,4.103-12.881,14.115-12.879,22.318c0,3.637,1.152,6.508,3.249,8.118
						c0.043,0.08,0.108,0.15,0.192,0.199l60.029,34.634c1.043,0.602,2.234,0.907,3.54,0.907c1.85,0,3.833-0.604,5.894-1.794
						c7.103-4.103,12.881-14.115,12.879-22.318c-0.001-4.083-1.405-7.142-3.952-8.612l-60.03-34.634
						c-0.065-0.038-0.141-0.053-0.218-0.053c-0.006,0-0.011,0-0.017,0C341.813,331.409,340.863,331.224,339.853,331.224
						L339.853,331.224L339.853,331.224z"/>
				</g>
				<path id="XMLID_323_" style="opacity:0.2;fill:#BA68C8;" d="M332.251,334.786c-6.024,4.59-10.644,13.259-10.643,20.537
					c0.005,3.725,1.228,6.418,3.219,7.842l-0.026,0.045l60.033,34.636c-2.29-1.321-3.709-4.151-3.704-8.182l-52.535-30.309
					C323.826,356.603,322.426,346.937,332.251,334.786z"/>
				<path id="XMLID_00000078743317390749875770000013434790232278715270_" style="opacity:0.4;fill:#FFFFFF;" d="M402.695,366.896
					l-60.033-34.636l-0.026,0.045c-2.229-1.011-5.167-0.732-8.4,1.137c-0.144,0.084-0.285,0.183-0.435,0.276
					c5.8-2.709,8.716-0.045,13.834,2.908l51.072,29.464C400.205,365.961,401.563,366.242,402.695,366.896z"/>
			</g>
			<g style="opacity:0.43;">
				<path id="XMLID_00000169526357461609859010000017034993210367051415_" style="fill:#BA68C8;" d="M381.129,389.663
					c0.001,8.056,5.658,11.321,12.634,7.291c6.976-4.029,12.63-13.827,12.629-21.884c-0.002-8.056-5.658-11.321-12.634-7.291
					C386.782,371.809,381.128,381.606,381.129,389.663z"/>
				<path id="XMLID_00000084499741324493430890000005603979660831752585_" style="opacity:0.8;fill:#FFFFFF;" d="M381.129,389.663
					c0.001,8.056,5.658,11.321,12.634,7.291c6.976-4.029,12.63-13.827,12.629-21.884c-0.002-8.056-5.658-11.321-12.634-7.291
					C386.782,371.809,381.128,381.606,381.129,389.663z"/>
				<path id="XMLID_00000150823055909595056350000016668475181954585775_" style="opacity:0.3;fill:#FFFFFF;" d="M382.714,381.677
					c2.155-5.727,6.29-11.152,11.044-13.898c6.976-4.029,12.633-0.765,12.634,7.291c0,0.702-0.058,1.421-0.141,2.145
					c0.27-4.133-1.377-9.357-6.217-10.04C395.119,366.481,387.424,371.434,382.714,381.677z"/>
			</g>
			<g>
				<path id="XMLID_00000039831035632736442460000016170899231743290810_" style="fill:#BA68C8;" d="M406.649,379.491
					c1.143,0.66,1.85,2.075,1.851,4.089c0.001,4.028-2.826,8.927-6.314,10.942c-1.744,1.007-3.323,1.103-4.466,0.443l0,0
					l-8.423-4.861l0,0c-1.143-0.66-1.85-2.075-1.851-4.089c-0.001-4.028,2.827-8.927,6.314-10.942
					c1.744-1.007,3.323-1.103,4.466-0.443l0,0L406.649,379.491L406.649,379.491z"/>
				<path id="XMLID_317_" style="opacity:0.7;fill:#FFFFFF;" d="M406.649,379.491c1.143,0.66,1.85,2.075,1.851,4.089
					c0.001,4.028-2.826,8.927-6.314,10.942c-1.744,1.007-3.323,1.103-4.466,0.443l0,0l-8.423-4.861l0,0
					c-1.143-0.66-1.85-2.075-1.851-4.089c-0.001-4.028,2.827-8.927,6.314-10.942c1.744-1.007,3.323-1.103,4.466-0.443l0,0
					L406.649,379.491L406.649,379.491z"/>
				<path id="XMLID_00000098918875011957516000000009888671460622926726_" style="opacity:0.4;fill:#FFFFFF;" d="M393.307,375.387
					c0.152-0.1,0.297-0.224,0.452-0.314c0.485-0.28,0.955-0.482,1.408-0.625l12.045,6.951l-0.871,1.509L393.307,375.387z"/>
				<path id="XMLID_315_" style="opacity:0.4;fill:#FFFFFF;" d="M391.415,376.96c0.311-0.323,0.633-0.626,0.966-0.904l12.701,7.33
					l-0.633,1.097L391.415,376.96z"/>
				<path id="XMLID_314_" style="opacity:0.2;fill:#BA68C8;" d="M390.661,387.181c1.197,0.691,2.119,1.223,6.559,3.785l3.744,4.122
					c-1.254,0.44-2.376,0.379-3.245-0.123l-8.423-4.861c-1.143-0.66-1.85-2.075-1.851-4.089c-0.001-4.028,2.827-8.927,6.314-10.942
					c0.485-0.28,0.955-0.482,1.408-0.625C389.546,377.742,388.086,385.695,390.661,387.181z"/>
				<path id="XMLID_313_" style="fill:#BA68C8;" d="M402.185,394.521c-3.488,2.015-6.317,0.383-6.317-3.646
					c-0.001-4.028,2.826-8.927,6.314-10.942c3.488-2.015,6.316-0.382,6.317,3.646C408.501,387.608,405.673,392.507,402.185,394.521z
					"/>
				<path id="XMLID_312_" style="opacity:0.8;fill:#FFFFFF;" d="M402.185,394.521c-3.488,2.015-6.317,0.383-6.317-3.646
					c-0.001-4.028,2.826-8.927,6.314-10.942c3.488-2.015,6.316-0.382,6.317,3.646C408.501,387.608,405.673,392.507,402.185,394.521z
					"/>
				<path id="XMLID_311_" style="opacity:0.3;fill:#FFFFFF;" d="M408.5,383.58c0,0.12-0.026,0.246-0.031,0.367
					c-0.125-2.057-1.353-4.503-4.199-3.988c-2.937,0.531-8.258,5.344-8.13,12.872c-0.175-0.568-0.272-1.221-0.272-1.956
					c-0.001-4.028,2.826-8.927,6.314-10.942C405.67,377.919,408.499,379.551,408.5,383.58z"/>
			</g>
			<g>
				<path id="XMLID_00000039117825917821466550000005750116324139927448_" style="fill:#BA68C8;" d="M413.584,390.369
					c0.001,1.899-1.332,4.208-2.977,5.158c-0.824,0.476-1.569,0.52-2.108,0.207l0,0l-8.418-4.858
					c-0.54-0.311-0.874-0.978-0.874-1.928c0-1.899,1.332-4.208,2.977-5.158c0.822-0.475,1.566-0.52,2.105-0.209l0,0l8.42,4.859l0,0
					C413.249,388.751,413.584,389.418,413.584,390.369z"/>
				<path id="XMLID_00000156552758074896570460000018127961078959268012_" style="opacity:0.7;fill:#FFFFFF;" d="M413.584,390.369
					c0.001,1.899-1.332,4.208-2.977,5.158c-0.824,0.476-1.569,0.52-2.108,0.207l0,0l-8.418-4.858
					c-0.54-0.311-0.874-0.978-0.874-1.928c0-1.899,1.332-4.208,2.977-5.158c0.822-0.475,1.566-0.52,2.105-0.209l0,0l8.42,4.859l0,0
					C413.249,388.751,413.584,389.418,413.584,390.369z"/>
				<path id="XMLID_308_" style="opacity:0.4;fill:#FFFFFF;" d="M401.198,384.567c0.31-0.305,0.638-0.577,0.985-0.777
					c0.077-0.044,0.149-0.067,0.225-0.104l9.258,5.342l-0.684,1.185L401.198,384.567z"/>
				<path id="XMLID_307_" style="opacity:0.4;fill:#FFFFFF;" d="M400.078,386.013c0.167-0.29,0.36-0.562,0.564-0.822l9.352,5.397
					l-0.497,0.861L400.078,386.013z"/>
				<path id="XMLID_00000115482693608557883620000003273738846992406970_" style="opacity:0.2;fill:#BA68C8;" d="M403.115,383.44
					c-1.449,0.52-2.691,2.506-2.589,4.192c0.103,1.704,1.074,2.113,2.528,2.952c1.454,0.839,3.707,2.139,6.559,3.785l0.452,1.408
					c-0.605,0.221-1.148,0.199-1.566-0.043l0,0l-8.418-4.858c-0.54-0.311-0.874-0.978-0.874-1.928c0-1.899,1.332-4.208,2.977-5.158
					C402.511,383.6,402.821,383.498,403.115,383.44z"/>
				<path id="XMLID_305_" style="fill:#BA68C8;" d="M410.607,395.527c-1.644,0.95-2.978,0.18-2.978-1.719
					c0-1.899,1.332-4.208,2.977-5.158c1.644-0.95,2.978-0.18,2.978,1.718C413.584,392.268,412.252,394.577,410.607,395.527z"/>
				<path id="XMLID_304_" style="opacity:0.8;fill:#FFFFFF;" d="M410.607,395.527c-1.644,0.95-2.978,0.18-2.978-1.719
					c0-1.899,1.332-4.208,2.977-5.158c1.644-0.95,2.978-0.18,2.978,1.718C413.584,392.268,412.252,394.577,410.607,395.527z"/>
				<path id="XMLID_303_" style="opacity:0.3;fill:#FFFFFF;" d="M413.584,390.369c0,0.389-0.068,0.796-0.171,1.204
					c0.111-1.225-0.346-2.758-1.582-2.831c-1.062-0.063-3.732,1.409-4.171,5.399c-0.01-0.111-0.031-0.212-0.031-0.332
					c0-1.899,1.332-4.208,2.977-5.158C412.25,387.701,413.584,388.47,413.584,390.369z"/>
			</g>
			<path id="XMLID_302_" style="fill:#455A64;" d="M410.755,392.815c0.231,0.241,0.673,0.416,1.181,0.732
				c1.038,0.595,2.521,1.446,4.3,2.467c1.783,1.014,3.847,2.226,6.088,3.473c2.237,1.254,4.623,2.591,7.009,3.929
				c4.781,2.66,9.562,5.32,13.147,7.315c1.793,0.997,23.066,13.248,24.112,13.83c0.523,0.291,0.934,0.52,1.214,0.675
				c0.28,0.157,0.455,0.195,0.482,0.147l0,0c0.028-0.048-0.093-0.18-0.369-0.344c-0.275-0.164-0.679-0.406-1.192-0.713
				c-1.027-0.614-22.274-12.912-24.035-13.965c-3.521-2.107-8.216-4.915-12.911-7.724c-2.352-1.397-4.704-2.793-6.909-4.103
				c-2.201-1.317-4.283-2.497-6.053-3.533c-1.774-1.03-3.252-1.888-4.287-2.489c-0.528-0.282-0.9-0.577-1.225-0.656
				C410.92,391.902,410.624,392.427,410.755,392.815z"/>
		</g>
	</g>
</g>
<g id="Icons">
	<path id="Icons_00000023983995561275769650000013795290782813725312_" style="fill:#BA68C8;" d="M109.622,184.09l0.97,5.781
		l-5.781,0.97l0.97,5.781l-5.781,0.97l-0.97-5.781l-5.781,0.97l-0.97-5.781l5.781-0.97l-0.97-5.781l5.781-0.97l0.97,5.781
		L109.622,184.09z M422.544,162.91l1.46-5.677l-5.677-1.46l-1.46,5.677l-5.677-1.46l-1.46,5.678l5.677,1.46l-1.46,5.678l5.677,1.46
		l1.46-5.677l5.677,1.46l1.46-5.677L422.544,162.91z M41.859,94.294l1.6,5.639l5.64-1.6l1.6,5.639l5.64-1.6l-1.6-5.639l5.639-1.6
		l-1.6-5.64l-5.64,1.6l-1.6-5.64l-5.64,1.6l1.6,5.639L41.859,94.294z M325.789,211.859c1.63,0,2.952-1.322,2.952-2.952
		c0-1.63-1.322-2.952-2.952-2.952c-1.63,0-2.952,1.322-2.952,2.952C322.837,210.537,324.159,211.859,325.789,211.859z
		 M56.846,37.023c1.631,0,2.952-1.322,2.952-2.952c0-1.631-1.322-2.952-2.952-2.952c-1.63,0-2.952,1.322-2.952,2.952
		C53.893,35.701,55.215,37.023,56.846,37.023z M165.404,213.425c1.63,0,2.952-1.322,2.952-2.952c0-1.63-1.322-2.952-2.952-2.952
		c-1.631,0-2.952,1.322-2.952,2.952C162.452,212.103,163.773,213.425,165.404,213.425z M144.777,122.864
		c1.63,0,2.952-1.322,2.952-2.952s-1.322-2.952-2.952-2.952c-1.631,0-2.952,1.322-2.952,2.952S143.146,122.864,144.777,122.864z
		 M111.727,75.811c1.63,0,2.952-1.322,2.952-2.952c0-1.631-1.322-2.952-2.952-2.952c-1.631,0-2.952,1.322-2.952,2.952
		C108.774,74.489,110.096,75.811,111.727,75.811z M40.678,178.193c1.63,0,2.952-1.322,2.952-2.952c0-1.631-1.322-2.952-2.952-2.952
		c-1.631,0-2.952,1.322-2.952,2.952C37.726,176.871,39.048,178.193,40.678,178.193z M40.678,280.591c1.63,0,2.952-1.322,2.952-2.952
		s-1.322-2.952-2.952-2.952c-1.631,0-2.952,1.322-2.952,2.952S39.048,280.591,40.678,280.591z M184.114,57.391
		c1.63,0,2.952-1.322,2.952-2.952s-1.322-2.952-2.952-2.952c-1.63,0-2.952,1.322-2.952,2.952S182.484,57.391,184.114,57.391z
		 M458.013,62.923c1.63,0,2.952-1.322,2.952-2.952s-1.322-2.952-2.952-2.952c-1.631,0-2.952,1.322-2.952,2.952
		S456.382,62.923,458.013,62.923z M395.972,34.071c1.63,0,2.952-1.322,2.952-2.952c0-1.631-1.322-2.952-2.952-2.952
		c-1.63,0-2.952,1.322-2.952,2.952C393.02,32.749,394.341,34.071,395.972,34.071z M458.013,124.326c1.63,0,2.952-1.322,2.952-2.952
		c0-1.63-1.322-2.952-2.952-2.952c-1.631,0-2.952,1.322-2.952,2.952C455.06,123.004,456.382,124.326,458.013,124.326z
		 M465.942,204.374c1.63,0,2.952-1.322,2.952-2.952c0-1.63-1.322-2.952-2.952-2.952c-1.63,0-2.952,1.322-2.952,2.952
		C462.99,203.053,464.311,204.374,465.942,204.374z M458.013,268.793c1.63,0,2.952-1.322,2.952-2.952s-1.322-2.952-2.952-2.952
		c-1.631,0-2.952,1.322-2.952,2.952S456.382,268.793,458.013,268.793z"/>
	<path id="Icons_00000111889045503541933950000014471135524943576737_" style="opacity:0.6;fill:#FFFFFF;" d="M109.622,184.09
		l0.97,5.781l-5.781,0.97l0.97,5.781l-5.781,0.97l-0.97-5.781l-5.781,0.97l-0.97-5.781l5.781-0.97l-0.97-5.781l5.781-0.97
		l0.97,5.781L109.622,184.09z M422.544,162.91l1.46-5.677l-5.677-1.46l-1.46,5.677l-5.677-1.46l-1.46,5.678l5.677,1.46l-1.46,5.678
		l5.677,1.46l1.46-5.677l5.677,1.46l1.46-5.677L422.544,162.91z M41.859,94.294l1.6,5.639l5.64-1.6l1.6,5.639l5.64-1.6l-1.6-5.639
		l5.639-1.6l-1.6-5.64l-5.64,1.6l-1.6-5.64l-5.64,1.6l1.6,5.639L41.859,94.294z M325.789,211.859c1.63,0,2.952-1.322,2.952-2.952
		c0-1.63-1.322-2.952-2.952-2.952c-1.63,0-2.952,1.322-2.952,2.952C322.837,210.537,324.159,211.859,325.789,211.859z
		 M56.846,37.023c1.631,0,2.952-1.322,2.952-2.952c0-1.631-1.322-2.952-2.952-2.952c-1.63,0-2.952,1.322-2.952,2.952
		C53.893,35.701,55.215,37.023,56.846,37.023z M165.404,213.425c1.63,0,2.952-1.322,2.952-2.952c0-1.63-1.322-2.952-2.952-2.952
		c-1.631,0-2.952,1.322-2.952,2.952C162.452,212.103,163.773,213.425,165.404,213.425z M144.777,122.864
		c1.63,0,2.952-1.322,2.952-2.952s-1.322-2.952-2.952-2.952c-1.631,0-2.952,1.322-2.952,2.952S143.146,122.864,144.777,122.864z
		 M111.727,75.811c1.63,0,2.952-1.322,2.952-2.952c0-1.631-1.322-2.952-2.952-2.952c-1.631,0-2.952,1.322-2.952,2.952
		C108.774,74.489,110.096,75.811,111.727,75.811z M40.678,178.193c1.63,0,2.952-1.322,2.952-2.952c0-1.631-1.322-2.952-2.952-2.952
		c-1.631,0-2.952,1.322-2.952,2.952C37.726,176.871,39.048,178.193,40.678,178.193z M40.678,280.591c1.63,0,2.952-1.322,2.952-2.952
		s-1.322-2.952-2.952-2.952c-1.631,0-2.952,1.322-2.952,2.952S39.048,280.591,40.678,280.591z M184.114,57.391
		c1.63,0,2.952-1.322,2.952-2.952s-1.322-2.952-2.952-2.952c-1.63,0-2.952,1.322-2.952,2.952S182.484,57.391,184.114,57.391z
		 M458.013,62.923c1.63,0,2.952-1.322,2.952-2.952s-1.322-2.952-2.952-2.952c-1.631,0-2.952,1.322-2.952,2.952
		S456.382,62.923,458.013,62.923z M395.972,34.071c1.63,0,2.952-1.322,2.952-2.952c0-1.631-1.322-2.952-2.952-2.952
		c-1.63,0-2.952,1.322-2.952,2.952C393.02,32.749,394.341,34.071,395.972,34.071z M458.013,124.326c1.63,0,2.952-1.322,2.952-2.952
		c0-1.63-1.322-2.952-2.952-2.952c-1.631,0-2.952,1.322-2.952,2.952C455.06,123.004,456.382,124.326,458.013,124.326z
		 M465.942,204.374c1.63,0,2.952-1.322,2.952-2.952c0-1.63-1.322-2.952-2.952-2.952c-1.63,0-2.952,1.322-2.952,2.952
		C462.99,203.053,464.311,204.374,465.942,204.374z M458.013,268.793c1.63,0,2.952-1.322,2.952-2.952s-1.322-2.952-2.952-2.952
		c-1.631,0-2.952,1.322-2.952,2.952S456.382,268.793,458.013,268.793z"/>
</g>
<g id="Character">
	<g id="Character_00000005235867219737112730000004022957332649468835_">
		<g id="Bottom_00000127004603286816295520000015206140421452086711_">
			<g>
				<path style="fill:#455A64;" d="M215.693,442.184c-0.709,5.429-1.97,8.941-4.558,11.886c-2.588,2.945-7.179,3.455-11.717,2.012
					c-4.538-1.443-10.273-4.601-11.318-9.465c-1.045-4.865-0.593-8.07,0.742-13.031L215.693,442.184z"/>
				<path id="XMLID_00000078028886554578667210000011218904182714881163_" style="fill:#BA68C8;" d="M199.703,400.556
					c-1.898-0.088-2.88,7.198-4.393,14.435c-1.622,7.757-4.724,10.698-6.141,17.048c-1.618,7.255-1.328,10.608,1.619,15.426
					c2.946,4.818,14.035,10.443,19.991,4.66c4.856-4.714,5.377-10.476,5.386-17.897c0.009-7.671-0.059-13.075,0.659-18.819
					c0.687-5.49,1.468-10.798-0.14-11.594c-0.173,0.798-0.356,1.815-0.536,2.598c-0.138,0.601-0.499,3.574-1.561,3.487
					c-0.058-0.717-0.001-1.373,0.099-2.086c0.087-0.62,0.061-1.309-0.416-1.841c-0.48-0.536-1.296-0.781-2.056-0.988
					c-1.844-0.502-3.702-0.974-5.586-1.32c-0.938-0.172-1.881-0.312-2.828-0.407c-0.768-0.077-1.674-0.124-2.413,0.013
					c-0.454,0.084-0.881,0.296-1.067,0.638c-0.138,0.253-0.131,0.548-0.148,0.832c-0.029,0.511-0.139,1.013-0.324,1.49
					c-0.081,0.21-0.283,0.456-0.551,0.373c-0.217-0.067-0.292-0.297-0.283-0.48c0.044-0.892,0.066-1.529,0.177-2.56
					c0.051-0.477,0.117-1.121,0.147-1.601C199.378,401.342,199.519,400.901,199.703,400.556z"/>
				<path id="XMLID_00000062884034550460061560000015676649236185485971_" style="opacity:0.9;fill:#FFFFFF;" d="M199.703,400.556
					c-1.898-0.088-2.88,7.198-4.393,14.435c-1.622,7.757-4.724,10.698-6.141,17.048c-1.618,7.255-1.328,10.608,1.619,15.426
					c2.946,4.818,14.035,10.443,19.991,4.66c4.856-4.714,5.377-10.476,5.386-17.897c0.009-7.671-0.059-13.075,0.659-18.819
					c0.687-5.49,1.468-10.798-0.14-11.594c-0.173,0.798-0.356,1.815-0.536,2.598c-0.138,0.601-0.499,3.574-1.561,3.487
					c-0.058-0.717-0.001-1.373,0.099-2.086c0.087-0.62,0.061-1.309-0.416-1.841c-0.48-0.536-1.296-0.781-2.056-0.988
					c-1.844-0.502-3.702-0.974-5.586-1.32c-0.938-0.172-1.881-0.312-2.828-0.407c-0.768-0.077-1.674-0.124-2.413,0.013
					c-0.454,0.084-0.881,0.296-1.067,0.638c-0.138,0.253-0.131,0.548-0.148,0.832c-0.029,0.511-0.139,1.013-0.324,1.49
					c-0.081,0.21-0.283,0.456-0.551,0.373c-0.217-0.067-0.292-0.297-0.283-0.48c0.044-0.892,0.066-1.529,0.177-2.56
					c0.051-0.477,0.117-1.121,0.147-1.601C199.378,401.342,199.519,400.901,199.703,400.556z"/>
				<path style="fill:#BA68C8;" d="M189.719,429.986c-0.245,1.045-1.767,7.977,0.538,9.509c2.495,1.659,4.226-3.732,4.226-3.732
					s6.123-0.831,14.731,3.24c-0.517,1.095,0.622,5.018,3.078,4.486c2.44-0.529,3.851-8.517,3.869-8.621
					c-0.041,7.112-0.668,12.681-5.382,17.258c-5.957,5.783-17.046,0.158-19.991-4.66c-2.947-4.818-3.237-8.17-1.618-15.426
					C189.331,431.313,189.518,430.635,189.719,429.986z"/>
				<path style="opacity:0.8;fill:#FFFFFF;" d="M189.719,429.986c-0.245,1.045-1.767,7.977,0.538,9.509
					c2.495,1.659,4.226-3.732,4.226-3.732s6.123-0.831,14.731,3.24c-0.517,1.095,0.622,5.018,3.078,4.486
					c2.44-0.529,3.851-8.517,3.869-8.621c-0.041,7.112-0.668,12.681-5.382,17.258c-5.957,5.783-17.046,0.158-19.991-4.66
					c-2.947-4.818-3.237-8.17-1.618-15.426C189.331,431.313,189.518,430.635,189.719,429.986z"/>
				<path style="opacity:0.3;fill:#BA68C8;" d="M195.144,436.312c-0.191,2.666-3.403,1.406-3.328-2.38
					c0.075-3.786,3.145-12.452,3.494-18.941c1.513-7.237,2.494-14.523,4.393-14.435c-0.012,0.09-0.153,1.603-0.163,1.693
					l-0.326,2.287c-0.086,0.537-0.17,1.012-0.199,1.589c-0.36,5.44-1.916,15.861-2.784,20.776
					C195.364,431.817,195.335,433.646,195.144,436.312z"/>
				<path style="opacity:0.3;fill:#BA68C8;" d="M208.198,438.817c0.772-2.555,1.397-4.27,2.341-9.17
					c0.937-4.864,3.174-15.027,4.775-20.265c0.362-1.134,0.686-2.437,0.776-2.874c0.234-1.144,0.376-1.736,0.539-2.506
					c0.025-0.11,0.044-0.15,0.054-0.187c1.252,0.52,1.072,3.561,0.67,7.238c-0.36,2.11-0.931,4.707-1.711,7.84
					c-1.988,6.175-2.209,15.44-3.489,18.994C210.875,441.442,207.427,441.371,208.198,438.817z"/>
				<g>
					<g>
						<path style="fill:#FAFAFA;" d="M209.387,439.239c-0.087-0.017-0.172-0.047-0.252-0.089c-0.066-0.037-6.77-3.627-14.503-2.82
							c-0.381,0.038-0.753-0.185-0.834-0.497c-0.083-0.313,0.159-0.598,0.538-0.638c8.274-0.864,15.215,2.862,15.509,3.022
							c0.334,0.182,0.448,0.539,0.251,0.796C209.947,439.209,209.661,439.292,209.387,439.239z"/>
					</g>
					<g>
						<path style="fill:#FAFAFA;" d="M211.3,433.617c-0.079-0.015-0.155-0.04-0.23-0.078c-0.074-0.037-7.627-3.809-16.239-3.151
							c-0.381,0.024-0.745-0.203-0.817-0.518c-0.07-0.314,0.184-0.594,0.566-0.622c9.108-0.691,16.829,3.171,17.155,3.334
							c0.342,0.175,0.47,0.529,0.287,0.793C211.878,433.582,211.584,433.671,211.3,433.617z"/>
					</g>
					<g>
						<path style="fill:#FAFAFA;" d="M195.606,424.933c-0.263-0.051-0.494-0.22-0.573-0.446c-0.105-0.311,0.109-0.612,0.48-0.672
							c8.615-1.39,16.794,3.013,17.14,3.203c0.336,0.183,0.448,0.539,0.251,0.797c-0.197,0.256-0.631,0.31-0.96,0.135
							c-0.078-0.041-8.025-4.311-16.041-3.01C195.805,424.955,195.704,424.952,195.606,424.933z"/>
					</g>
					<g>
						<path style="fill:#FAFAFA;" d="M196.391,419.796c-0.259-0.05-0.486-0.215-0.568-0.436c-0.114-0.311,0.094-0.615,0.464-0.679
							c9.484-1.676,17.167,2.998,17.489,3.197c0.322,0.199,0.407,0.559,0.19,0.805c-0.217,0.245-0.661,0.283-0.975,0.084
							c-0.07-0.045-7.464-4.525-16.29-2.967C196.596,419.817,196.491,419.815,196.391,419.796z"/>
					</g>
					<g>
						<path style="fill:#FAFAFA;" d="M197.302,414.027c-0.255-0.049-0.48-0.21-0.565-0.429c-0.119-0.308,0.083-0.615,0.452-0.685
							c8.894-1.685,17.254,3.159,17.604,3.369c0.328,0.192,0.422,0.551,0.213,0.802c-0.207,0.251-0.64,0.301-0.969,0.103
							c-0.082-0.047-8.158-4.724-16.416-3.159C197.514,414.048,197.406,414.047,197.302,414.027z"/>
					</g>
				</g>
			</g>
			<g>
				<path style="fill:#455A64;" d="M307.567,428.341c0.357,0.024,0.659,3.652-1.38,5.051c-2.354,1.615-9.116,4.076-17.731,2.478
					c-8.615-1.598-13.155-4.36-16.455-7.244c-3.299-2.884-7.922-6.949-11.798-7.999c-3.599-0.975-7.463-2.746-8.562-3.852
					c-1.1-1.107-0.636-5.673-0.636-5.673L307.567,428.341z"/>
				<path id="XMLID_00000045591905322606076150000002184988142714673801_" style="fill:#BA68C8;" d="M255.625,393.713
					c0,0-1.09-0.06-1.385,0.984c-0.35,1.244-0.88,4.893-1.591,6.926c-0.986,2.825-1.909,8.688-1.585,11.065
					c0.324,2.377,6.164,4.399,9.878,5.971c3.793,1.606,8.1,4.685,11.846,7.911c3.877,3.34,12.25,7.102,17.911,7.438
					c6.699,0.396,14.367-1.086,16.281-3.806c2.368-3.366,4.194-7.338-5.457-12.193c-1.827-0.919-8.193-4.921-10.358-6.362
					c-5.857-3.9-9.928-7.392-12.321-13.767c-0.28-0.745-0.57-1.569-1.303-1.987c-0.561-0.32-1.263-0.326-1.92-0.286
					c-1.668,0.103-8.32,0.498-9.87,1.055c-1.371,0.492-3.305,1.042-3.379,2.602c-0.025,0.543,0.112,1.082,0.27,1.608
					c0.098,0.326,0.163,0.755-0.154,0.923c-0.3,0.159-0.668-0.069-0.913-0.298c-0.984-0.919-1.673-2.058-2.483-3.109
					c-0.434-0.563-0.911-1.106-1.475-1.565c-0.512-0.417-1.185-0.653-1.634-1.117C255.416,395.116,255.606,394.445,255.625,393.713z
					"/>
				<path id="XMLID_00000122000700214020413790000017014075043323048609_" style="opacity:0.9;fill:#FFFFFF;" d="M255.625,393.713
					c0,0-1.09-0.06-1.385,0.984c-0.35,1.244-0.88,4.893-1.591,6.926c-0.986,2.825-1.909,8.688-1.585,11.065
					c0.324,2.377,6.164,4.399,9.878,5.971c3.793,1.606,8.1,4.685,11.846,7.911c3.877,3.34,12.25,7.102,17.911,7.438
					c6.699,0.396,14.367-1.086,16.281-3.806c2.368-3.366,4.194-7.338-5.457-12.193c-1.827-0.919-8.193-4.921-10.358-6.362
					c-5.857-3.9-9.928-7.392-12.321-13.767c-0.28-0.745-0.57-1.569-1.303-1.987c-0.561-0.32-1.263-0.326-1.92-0.286
					c-1.668,0.103-8.32,0.498-9.87,1.055c-1.371,0.492-3.305,1.042-3.379,2.602c-0.025,0.543,0.112,1.082,0.27,1.608
					c0.098,0.326,0.163,0.755-0.154,0.923c-0.3,0.159-0.668-0.069-0.913-0.298c-0.984-0.919-1.673-2.058-2.483-3.109
					c-0.434-0.563-0.911-1.106-1.475-1.565c-0.512-0.417-1.185-0.653-1.634-1.117C255.416,395.116,255.606,394.445,255.625,393.713z
					"/>
				<path style="opacity:0.8;fill:#BA68C8;" d="M272.788,426.57c-1.646-1.418-3.401-2.799-5.173-4.047l0-0.008
					c0,0,11.249,7.25,16.16,4.62c3.164-1.695,1.87-4.092,1.845-4.833c-0.025-0.741,11.047-5.227,14.02-5.352v0
					c0.795,0.469,1.462,0.849,1.883,1.06c9.651,4.855,7.825,8.826,5.457,12.193c-1.914,2.72-7.52,4.571-16.174,4.001
					C285.147,433.829,276.665,429.91,272.788,426.57z"/>
				<path style="opacity:0.8;fill:#FFFFFF;" d="M272.788,426.57c-1.646-1.418-3.401-2.799-5.173-4.047l0-0.008
					c0,0,11.249,7.25,16.16,4.62c3.164-1.695,1.87-4.092,1.845-4.833c-0.025-0.741,11.047-5.227,14.02-5.352v0
					c0.795,0.469,1.462,0.849,1.883,1.06c9.651,4.855,7.825,8.826,5.457,12.193c-1.914,2.72-7.52,4.571-16.174,4.001
					C285.147,433.829,276.665,429.91,272.788,426.57z"/>
				<path style="opacity:0.3;fill:#BA68C8;" d="M284.946,420.102c6.025,2.661,3.322,3.54,1.579,3.651
					c-1.743,0.112-11.77-6.114-17.806-11.109c-6.296-5.211-10.121-10.705-12.461-12.62c-0.872-0.714-1.805-1.582-2.632-2.39
					c0.244-1.23,0.45-2.351,0.615-2.936c0.294-1.045,1.385-0.984,1.385-0.984c-0.019,0.732-0.209,1.403,0.359,1.992
					c0.448,0.465,1.121,0.7,1.634,1.117c0.564,0.459,1.041,1.003,1.475,1.565c0.81,1.051,1.499,2.19,2.483,3.109
					C266.557,408.098,278.921,417.441,284.946,420.102z"/>
				<g>
					<g>
						<path style="fill:#FAFAFA;" d="M286.14,422.896c-0.137-0.009-0.27-0.059-0.379-0.152c-0.249-0.212-0.265-0.566-0.034-0.79
							c1.871-1.833,10.432-5.91,14.944-5.156c0.335,0.054,0.559,0.347,0.501,0.65c-0.055,0.303-0.337,0.498-0.705,0.45
							c-4.214-0.696-12.359,3.372-13.841,4.824C286.498,422.849,286.318,422.908,286.14,422.896z"/>
					</g>
					<g>
						<path style="fill:#FAFAFA;" d="M280.954,419.515c-0.136-0.009-0.27-0.059-0.378-0.152c-0.249-0.212-0.263-0.566-0.034-0.79
							c1.869-1.832,10.428-5.906,14.944-5.154c0.334,0.055,0.559,0.347,0.501,0.65c-0.056,0.303-0.363,0.506-0.705,0.45
							c-4.216-0.69-12.36,3.37-13.842,4.823C281.312,419.469,281.132,419.527,280.954,419.515z"/>
					</g>
					<g>
						<path style="fill:#FAFAFA;" d="M275.757,416.294c-0.136-0.009-0.27-0.059-0.378-0.152c-0.249-0.212-0.263-0.566-0.035-0.79
							c1.871-1.833,10.432-5.914,14.944-5.154c0.334,0.055,0.559,0.347,0.501,0.65c-0.056,0.303-0.358,0.506-0.705,0.451
							c-4.216-0.696-12.36,3.37-13.842,4.823C276.114,416.248,275.934,416.306,275.757,416.294z"/>
					</g>
					<g>
						<path style="fill:#FAFAFA;" d="M270.981,412.693c-0.136-0.009-0.27-0.059-0.378-0.152c-0.249-0.212-0.263-0.565-0.035-0.79
							c1.869-1.833,10.449-5.908,14.944-5.154c0.334,0.055,0.559,0.347,0.501,0.65c-0.056,0.303-0.36,0.504-0.705,0.451
							c-4.21-0.692-12.359,3.37-13.841,4.822C271.339,412.646,271.159,412.704,270.981,412.693z"/>
					</g>
					<g>
						<path style="fill:#FAFAFA;" d="M266.307,409.097c-0.133-0.009-0.264-0.057-0.371-0.146c-0.253-0.208-0.273-0.563-0.048-0.79
							c2.577-2.604,11.478-5.895,15.989-5.142c0.334,0.054,0.559,0.347,0.501,0.65c-0.056,0.303-0.361,0.497-0.705,0.45
							c-4.061-0.675-12.587,2.49-14.874,4.798C266.671,409.049,266.486,409.109,266.307,409.097z"/>
					</g>
				</g>
			</g>
			<g>
				<path style="fill:#BA68C8;" d="M212.669,196.646c-7.406,12.1-11.018,20.29-10.726,56.802c0.16,20.023-1.567,51.251-1.826,55.647
					c-0.258,4.397-2.301,6.645-3.973,28.395c-1.816,23.619-0.658,67.294-0.658,67.294s1.247,2.869,9.718,5.195
					c8.907,2.445,14.76-0.438,14.76-0.438s11.532-64.518,14.155-77.675c4.139-20.758,10.25-54.005,10.25-54.005l2.904,35.253
					c0,0-1.564,12.607,0.432,31.677c1.996,19.07,4.918,54.807,4.918,54.807s5.243,3.662,12.152,3.764
					c10.262,0.153,15.129-3.962,15.129-3.962s3.736-73.69,4.264-95.237c0.528-21.547,4.253-75.965-4.411-107.517H212.669z"/>
				<path style="opacity:0.6;fill:#FFFFFF;" d="M212.669,196.646c-7.406,12.1-11.018,20.29-10.726,56.802
					c0.16,20.023-1.567,51.251-1.826,55.647c-0.258,4.397-2.301,6.645-3.973,28.395c-1.816,23.619-0.658,67.294-0.658,67.294
					s1.247,2.869,9.718,5.195c8.907,2.445,14.76-0.438,14.76-0.438s11.532-64.518,14.155-77.675
					c4.139-20.758,10.25-54.005,10.25-54.005l2.904,35.253c0,0-1.564,12.607,0.432,31.677c1.996,19.07,4.918,54.807,4.918,54.807
					s5.243,3.662,12.152,3.764c10.262,0.153,15.129-3.962,15.129-3.962s3.736-73.69,4.264-95.237
					c0.528-21.547,4.253-75.965-4.411-107.517H212.669z"/>
				<path style="opacity:0.5;fill:#BA68C8;" d="M244.369,277.86l7.089-35.57c0,0,14.263-0.287,21.79-10.416
					c-2.627,9.403-12.303,14.516-17.819,15.627l-8.012,29.967l-0.144,35.645L244.369,277.86z"/>
			</g>
		</g>
		<g id="Top_00000127733497861348859130000001778612470471326099_">
			<g id="Arm_00000147183184042774764450000011019234941117659788_">
				<g>
					<path style="fill:#455A64;" d="M338.423,156.342c-8.665,4.537-34.049,17.675-34.049,17.675s-11.685-22.598-15.909-30.984
						c-6.402-12.711-12.342-16.797-20.495-17.491l3.327,38.859c0,0,10.471,16.908,15.227,24.986
						c6.522,11.077,11.083,12.2,14.242,12.136c9.901-0.324,16.606-7.449,39.373-26.15L338.423,156.342z"/>
					<path style="fill:#BA68C8;" d="M267.074,124.638c5.742,0.465,11.648,2.556,16.588,9.452c4.94,6.895,14.923,27.73,14.923,27.73
						s-2.058,4.894-7.925,9.216c-5.866,4.322-12.041,6.072-12.041,6.072l-8.748-14.155L267.074,124.638z"/>
					<path style="opacity:0.3;fill:#FFFFFF;" d="M267.074,124.638c5.742,0.465,11.648,2.556,16.588,9.452
						c4.94,6.895,14.923,27.73,14.923,27.73s-2.058,4.894-7.925,9.216c-5.866,4.322-12.041,6.072-12.041,6.072l-8.748-14.155
						L267.074,124.638z"/>
				</g>
				<g>
					<path style="fill:#37474F;" d="M304.374,174.017c-5.205,2.617-8.548,6.02-10.297,12.826c-0.159-4.496,1.969-11.348,9.101-15.14
						L304.374,174.017z"/>
				</g>
			</g>
			<g>
				<path id="Hair_00000088099659632448350280000016735588490280836760_" style="fill:#263238;" d="M266.364,113.542
					c0.648,0.957,0.929,2.155,0.775,3.3c5.169-1.435,8.94-6.811,8.529-12.16c-0.326-4.241-2.9-7.951-4.075-12.038
					c-1.166-4.054-0.88-6.91,0.702-10.806c1.493-3.676,4.259-7.498,2.795-11.637c-2.49-7.039-9.911-11.6-16.619-13.955
					c-4.051-1.422-9.154-1.964-13.423-1.729c-8.24,0.453-19.298,4.268-21.844,12.806c0.025-0.084-2.846,0.537-5.682,3.543
					c-3.935,4.172-3.73,9.411-3.843,12.664c-0.147,4.227,0.057,6.048-0.236,10.267c-0.2,2.876-0.98,4.349-1.439,6.456
					c-0.548,2.517-1.87,4.831-2.28,7.374c-1.158,7.193,5.109,12.216,11.82,12.477c-1.181-1.122-1.671-2.77-2.113-4.338
					c0.346,1.226,1.996,2.577,2.957,3.324c1.29,1.001,2.62,1.428,4.089,2.013c5.234,2.084,10.151,2.647,15.808,2.541
					c7.107-0.133,10.375-0.654,15.19-2.209c1.861-0.6,4.422-1.786,5.958-2.996C264.969,117.231,266.171,115.488,266.364,113.542z"/>
				<g id="Pencil_00000183929340803750172820000016208173531200201917_">
					<path id="XMLID_00000034059615371845516710000015987811812417145775_" style="fill:#BA68C8;" d="M212.815,102.374l0.375-0.315
						l0.454-0.378l23.699-19.701c-0.39,0.026-1.016-0.337-1.532-0.915c-0.601-0.674-0.969-1.501-0.829-1.95l-23.578,19.6
						l-0.866,0.726C211.125,99.003,213.397,101.926,212.815,102.374z"/>
					<g>
						<path id="XMLID_00000048466295896797874000000017055275245079113616_" style="fill:#EBEBEB;" d="M211.363,98.747l-0.837,0.704
							c-0.249,0.196,0.029,0.844,0.477,1.487c0.592,0.855,1.482,1.699,1.813,1.44l0.618-0.518l0.217-0.189
							c-0.331,0.259-1.221-0.585-1.814-1.44c-0.428-0.616-0.701-1.241-0.499-1.46l0.003-0.002
							C211.346,98.761,211.353,98.754,211.363,98.747z"/>
						<path id="XMLID_00000144321029227859775750000016385687573523162753_" style="fill:#BA68C8;" d="M211.156,98.925
							c-0.58,0.454,1.708,3.379,2.288,2.925l0.84-0.702c-0.58,0.454-2.868-2.471-2.288-2.925L211.156,98.925z"/>
						<path id="XMLID_00000042009460321803308260000013348924205458925472_" style="fill:#EBEBEB;" d="M212.796,97.555l-0.83,0.692
							c-0.573,0.442,1.608,3.287,2.24,2.966c0.012-0.004,0.024-0.013,0.036-0.022l0.83-0.704
							C214.486,100.926,212.214,98.003,212.796,97.555z"/>
					</g>
					<path style="fill:#F28F8F;" d="M210.533,99.44c0.007,0.002,0.007,0.002,0.007,0.002l-0.011,0.011
						c-0.255,0.192,0.028,0.841,0.477,1.485c0.579,0.843,1.449,1.678,1.793,1.45l-3.502,2.93c-0.314,0.223-0.703,0.158-1.076-0.068
						c-1.006-0.605-1.916-2.378-1.073-2.979L210.533,99.44z"/>
					<g>
						<path id="XMLID_00000170264401838123762250000009383965800987805597_" style="fill:#F28F8F;" d="M239.001,77.902
							c0.303,0.46,0.518,0.504,0.518,0.504l-2.175,3.574c-0.725,0.168-1.58-0.432-2.061-1.21l0.157-0.134L239.001,77.902z"/>
						<path id="XMLID_00000082333785724333501750000008181903527926803629_" style="fill:#37474F;" d="M240.111,77.434l-0.592,0.972
							c0,0-0.22-0.027-0.518-0.504l0.914-0.702l0,0c0.09-0.035,0.175,0.014,0.207,0.088
							C240.141,77.332,240.141,77.385,240.111,77.434z"/>
						<path id="XMLID_00000047781396072645102810000002568102892078864061_" style="fill:#FFA8A7;" d="M234.98,79.118l0.003-0.002
							l0,0l-0.001-0.002l3.97-1.54c-0.02,0.11-0.004,0.229,0.049,0.328l-3.561,2.734l-0.157,0.134
							C234.954,80.24,234.8,79.627,234.98,79.118z"/>
						<path id="XMLID_00000091012009056051471240000011621387356423768748_" style="fill:#455A64;" d="M239.001,77.902
							c-0.078-0.11-0.077-0.28-0.049-0.328l0.963-0.374L239.001,77.902z"/>
					</g>
					<path style="opacity:0.2;" d="M235.282,80.77l-27.826,23.771c0.226,0.29,0.491,0.543,0.765,0.707
						c0.375,0.228,0.76,0.29,1.075,0.067l3.518-2.941l0.375-0.315l0.454-0.378l23.699-19.701
						C236.446,82.183,235.564,81.274,235.282,80.77z"/>
				</g>
				<g id="Chest_00000132768934698707482220000006317367649916596893_">
					<g>
						<g>
							<path style="fill:#BA68C8;" d="M255.41,123.507c0,0-21.622,0.8-29.111,2.209c-7.736,1.454-10.947,2.367-10.947,2.367
								c-2.435,2.995-8.455,16.511-9.26,28.076c-0.393,5.643,7.572,22.019,7.81,28.552c0.204,5.594-5.854,17.726-9.254,26.358
								c15.231,22.81,72.017,17.961,78.809-2.881l-3.344-18.745c0,0-0.65-10.944-0.409-15.009c0,0,4.242-7.035,4.184-14.83
								c-0.057-7.648-1.788-13.487-9.209-24.099c-2.734-3.91-7.606-10.868-7.606-10.868S258.848,123.841,255.41,123.507z"/>
						</g>
					</g>
					<g style="opacity:0.5;">
						<g>
							<path style="fill:#FFFFFF;" d="M255.41,123.507c0,0-21.622,0.8-29.111,2.209c-7.736,1.454-10.947,2.367-10.947,2.367
								c-2.435,2.995-8.455,16.511-9.26,28.076c-0.393,5.643,7.572,22.019,7.81,28.552c0.204,5.594-5.854,17.726-9.254,26.358
								c15.231,22.81,72.017,17.961,78.809-2.881l-3.344-18.745c0,0-0.65-10.944-0.409-15.009c0,0,4.242-7.035,4.184-14.83
								c-0.057-7.648-1.788-13.487-9.209-24.099c-2.734-3.91-7.606-10.868-7.606-10.868S258.848,123.841,255.41,123.507z"/>
						</g>
					</g>
					<path style="fill:#FFFFFF;" d="M232.618,132.757c0,0,7.734,10.808,23.301,16.162c4.462-11.265,2.677-20.653,2.677-20.653
						L232.618,132.757z"/>
					<path style="opacity:0.3;fill:#BA68C8;" d="M253.308,174.343c-2.876,3.41-5.982,4.338-7.437,4.723
						c-3.233,0.857-6.668,0.976-9.909,0.367c-4.516-0.849-8.431-3.383-11.012-7.144c-0.116-0.169-0.292-0.36-0.487-0.297
						c-0.225,0.073-0.217,0.393-0.157,0.621c0.661,2.52,2.15,4.806,4.152,6.467c2.321,1.925,5.205,2.543,8.128,2.964
						c3.568,0.513,7.474-0.008,10.853-1.368c1.494-0.601,2.475-1.199,3.625-2.343c1.065-1.058,1.947-2.438,2.39-3.829
						C253.485,174.405,253.42,174.25,253.308,174.343z"/>
				</g>
				<g id="Head_00000152232988913564578070000014246248400659699390_">
					<path style="fill:#FFBDA7;" d="M231.027,119.029c-0.508-7.555-0.717-15.017-0.717-15.017c-0.761,1.39-5.471,3.788-10.079-0.15
						c-4.088-3.494-3.963-9.506-1.561-12.605c2.744-3.541,7.278-3.391,10.301,1.16c0.175,0.264,1.463-0.102,1.696-0.207
						c0.483-0.216,0.852-0.566,1.112-1.025c0.316-0.557,0.409-1.222,0.428-1.852c0.017-0.531-0.11-1.473-0.264-2.115
						c4.18,0.084,10.168-1.927,13.704-5.209c5.565-5.166,7.569-13.787,7.319-14.746c4.362,0.552,6.991,1.976,7.98,2.848
						c2.086,1.839,3.199,3.405,4.228,5.959c1.098,2.724,0.71,5.886,0.973,8.618c0.158,1.65,0.824,4.586,1.211,6.676
						c1.43,7.729,0.563,17.054-3.66,20.775c-2.069,1.823-6.336,4.249-9.796,4.306c0,0,0.233,1.545,0.429,3.568
						c0.196,2.023,0.933,3.555,3.281,3.706c2.479,2.531,6.056,10.503-5.617,12.914c-12.138,2.507-23.65-5.008-25.695-10.919
						C228.924,124.557,231.367,124.091,231.027,119.029z"/>
					<path style="fill:#FFA8A7;" d="M234.548,94.581c0.089,2.829,2.455,5.051,5.284,4.962s5.051-2.455,4.962-5.284
						s-2.454-5.051-5.284-4.962C236.681,89.386,234.46,91.752,234.548,94.581z"/>
					<path style="fill:#FFA8A7;" d="M265.994,96.571c-2.829,0.089-5.195-2.132-5.284-4.962c-0.089-2.829,2.133-5.195,4.962-5.284
						c0.245-0.008,0.481,0.024,0.718,0.05c0.275,1.579,0.69,3.497,0.966,4.991c0.285,1.541,0.475,3.146,0.569,4.757
						C267.334,96.388,266.683,96.549,265.994,96.571z"/>
					<g>
						<g id="XMLID_00000165913332251931954490000000042629458524945333_">
							<path id="XMLID_00000152980787186402447280000000339220000722355588_" style="fill:#F0997A;" d="M253.901,116.446
								c-8.619,0.436-15.633-1.889-19.909-7.481c0,0,0.904,4.547,4.343,6.668c7.384,4.553,15.932,3.729,15.932,3.729
								L253.901,116.446z"/>
						</g>
						<g>
							<g id="XMLID_00000151517031778976225380000004245610255376360883_">
								<path id="XMLID_00000056407093328098106650000017205512866948143277_" style="fill:#B16668;" d="M254.111,103.258
									l-8.474-2.127c-0.689,2.32,0.65,4.676,2.991,5.263C250.967,106.98,253.423,105.576,254.111,103.258z"/>
							</g>
							<path style="fill:#F28F8F;" d="M250.514,106.443c-0.613,0.112-1.253,0.11-1.886-0.049c-1.632-0.409-2.757-1.684-3.067-3.201
								C247.785,103.093,249.764,104.435,250.514,106.443z"/>
							<polygon id="XMLID_00000029735363842398021900000017450230097535124410_" style="fill:#F0997A;" points="250.367,84.631 
								252.793,98.013 259.413,95.737 							"/>
							<path id="XMLID_00000044887147503733570260000018033743654525036453_" style="fill:#263238;" d="M263.687,81.371
								l-5.358-0.875c0.187-1.501,1.539-2.521,3.019-2.279C262.827,78.459,263.875,79.871,263.687,81.371z"/>
							<g>
								<g>
									<g id="XMLID_00000154421715926712928360000002360028461682693778_">
										<path id="XMLID_00000117639451131246067750000003459985369578789310_" style="fill:#263238;" d="M258.067,88.273
											c0.495,0.912,1.83,1.284,2.98,0.831c1.151-0.453,1.682-1.56,1.186-2.471c-0.496-0.912-1.83-1.284-2.98-0.83
											C258.103,86.256,257.572,87.362,258.067,88.273z"/>
									</g>
									<path style="fill:#263238;" d="M260.055,85.622c1.418-0.146,2.502,1.646,3.761,0.712c-0.091,1.049-1.535,1.86-2.599,1.478
										C260.536,87.567,260.055,85.622,260.055,85.622z"/>
								</g>
							</g>
							<path id="XMLID_00000022521911522400566120000010677920417503680146_" style="fill:#263238;" d="M243.232,81.715
								l-5.262,2.464c-0.741-1.439-0.163-3.157,1.29-3.837C240.713,79.662,242.492,80.277,243.232,81.715z"/>
							<g>
								<g>
									<g id="XMLID_00000049931648564337938210000010092449088254754991_">
										<path id="XMLID_00000174570427243450588680000000858243767541350817_" style="fill:#263238;" d="M245.879,89.337
											c-0.204,1.018-1.371,1.766-2.603,1.672c-1.233-0.094-2.066-0.995-1.861-2.012c0.205-1.017,1.37-1.766,2.604-1.671
											C245.251,87.42,246.084,88.32,245.879,89.337z"/>
									</g>
									<path style="fill:#263238;" d="M243.199,87.389c-1.398,0.278-1.906,2.309-3.384,1.788c0.396,0.976,2.015,1.326,2.919,0.646
										C243.312,89.39,243.199,87.389,243.199,87.389z"/>
								</g>
							</g>
						</g>
					</g>
				</g>
				<g>
					<path style="fill:#BA68C8;" d="M260.081,123.94l-3.594-0.434c1.526,5.139,0.325,16.536-1.227,23.503
						c-10.692-4.081-19.493-11.775-26.577-22.373l-4.414,1.467c9.04,14.64,19.323,21.033,33.176,26.307
						C260.123,144.553,261.802,129.577,260.081,123.94z"/>
					<path style="opacity:0.3;fill:#FFFFFF;" d="M260.081,123.94l-3.594-0.434c1.526,5.139,0.325,16.536-1.227,23.503
						c-10.692-4.081-19.493-11.775-26.577-22.373l-4.414,1.467c9.04,14.64,19.323,21.033,33.176,26.307
						C260.123,144.553,261.802,129.577,260.081,123.94z"/>
				</g>
			</g>
			<g id="Arm_00000034047753237826410720000010310393467212683666_">
				<path style="fill:#F0997A;" d="M199.789,235.106c-1.463-1.596-3.346-3.007-3.955-5.175c-0.313-1.116-0.206-2.405,0.525-3.305
					c0.153-0.188,0.335-0.367,0.395-0.601c0.05-0.195,0.007-0.4-0.03-0.597c-0.154-0.822-0.197-1.706,0.161-2.462
					c0.303-0.64,0.891-1.14,1.572-1.335c-0.39-1.201-0.378-2.529,0.032-3.723c0.486-1.411,1.945-2.539,2.902-0.957
					c0.467,0.772,0.809,1.623,1.105,2.473c0.741,2.123,2.421,4.086,2.647,6.32c0.236,2.34-0.442,9.235-4.064,9.549
					C200.796,235.317,199.995,235.332,199.789,235.106z"/>
				<path style="fill:#FFBDA7;" d="M219.17,224.532c-0.431-2.877-1.018-5.73-1.758-8.543c-0.256-0.972-0.81-1.81-1.378-2.627
					c-0.654-0.94-1.277-1.912-1.983-2.812c-1.982-2.525-5.74-7.488-9.468-12.441c-8.992-2.85-13.857,1.543-15.917,10.86
					c4.257,4.018,9.384,8.277,13.505,12.434c1.092,1.102,1.655,2.192,1.285,3.806c-0.216,0.94-0.626,1.837-0.733,2.795
					c-0.137,1.234,0.238,2.464,0.296,3.704c0.058,1.24-0.335,2.664-1.461,3.189c-0.544,0.253-1.17,0.251-1.769,0.208
					c1.06,0.749,2.168,1.463,3.405,1.857c1.237,0.393,2.63,0.438,3.799-0.126c1.135-0.548,1.989-1.624,3.197-1.985
					c0.651-0.195,1.352-0.161,2.009-0.335c0.675-0.179,1.289-0.58,1.723-1.126c0.69-0.867,0.975-2.114,1.948-2.645
					c0.465-0.253,1.015-0.294,1.506-0.492c1.004-0.404,1.65-1.434,1.871-2.493C219.469,226.701,219.331,225.602,219.17,224.532z"/>
				<path style="fill:#455A64;" d="M215.223,128.883c-13.949,2.635-14.273,5.821-22.579,17.258
					c-8.197,11.287-19.371,27.004-21.964,32.569c-3.21,6.889-3.891,9.534,3.487,16.877c3.801,3.783,9.106,8.293,14.499,13.383
					c3.792-7.247,9.119-10.818,15.917-10.86c-5.287-7.026-10.512-14.031-10.512-14.031l17.719-22.232
					C211.79,161.846,224.256,148.77,215.223,128.883z"/>
				<path style="fill:#BA68C8;" d="M216.422,127.816c-7.353,1.469-10.31,2.508-14.146,5.305c-3.836,2.797-8.228,9.975-11.505,14.691
					c-3.277,4.715-9.61,14.195-9.61,14.195s0.176,4.041,6.729,9.875c6.553,5.834,12.867,4.875,12.867,4.875
					s11.349-13.826,14.625-17.822C218.66,154.939,222.044,137.554,216.422,127.816z"/>
				<path style="opacity:0.3;fill:#FFFFFF;" d="M216.422,127.816c-7.353,1.469-10.31,2.508-14.146,5.305
					c-3.836,2.797-8.228,9.975-11.505,14.691c-3.277,4.715-9.61,14.195-9.61,14.195s0.176,4.041,6.729,9.875
					c6.553,5.834,12.867,4.875,12.867,4.875s11.349-13.826,14.625-17.822C218.66,154.939,222.044,137.554,216.422,127.816z"/>
				<path style="fill:#37474F;" d="M194.071,184.078c-4.241,4.155-10.822,4.487-13.246,4.338c8.551,3.486,14.618-2.501,14.618-2.501
					L194.071,184.078z"/>
			</g>
			<g>
				<path style="fill:#BA68C8;" d="M233.962,155.32c-0.141-0.959-0.665-2.975-1.327-5.527c-2.078-8.009-3.98-18.669-3.917-25.662
					c0.01-1.092,0.527-2.113,1.399-2.769c0.298-0.225,0.576-0.475,0.924-0.865c-0.075,7.67,2.02,23.726,3.347,28.841
					c0.676,2.605,1.21,4.663,1.366,5.717L233.962,155.32z"/>
				<g>
					<g>
						<path style="fill:#455A64;" d="M235.274,198.065c-0.051,0.005-0.102,0.009-0.153,0.012l-0.074-1.268
							c1.123-0.074,2.61-0.848,3.987-1.942c-1.462-0.801-2.8-1.787-3.742-2.788c-2.286-2.433-8.555-20.798-7.608-25.31
							c0.795-3.783,3.611-12.226,6.804-12.675c0.027-0.004,0.055-0.007,0.083-0.01c3.198-0.311,8.15,6.936,9.936,10.325
							c2.151,4.08,1.162,23.463-0.369,26.429c-0.631,1.221-1.646,2.538-2.832,3.71c1.622,0.674,3.219,1.025,4.367,0.771l0.275,1.24
							c-1.533,0.34-3.645-0.153-5.669-1.069C238.638,196.881,236.813,197.915,235.274,198.065z M234.702,155.347
							c-0.013,0.001-0.026,0.003-0.04,0.005c-1.875,0.263-4.673,6.604-5.738,11.678c-0.871,4.145,5.168,21.92,7.291,24.179
							c0.933,0.992,2.345,1.99,3.852,2.763c1.236-1.159,2.32-2.507,2.945-3.717c1.422-2.753,2.351-21.505,0.374-25.253
							C240.986,160.448,236.601,155.163,234.702,155.347z"/>
					</g>
					<g>
						<path style="fill:#263238;" d="M247.655,195.68c0.142,1.02-0.568,1.962-1.585,2.105c-1.018,0.143-1.96-0.568-2.102-1.588
							c-0.143-1.02,0.567-1.962,1.585-2.105C246.571,193.949,247.512,194.66,247.655,195.68z"/>
					</g>
					<g>
						<path style="fill:#263238;" d="M236.928,197.185c0.143,1.02-0.567,1.962-1.585,2.105c-1.018,0.143-1.959-0.568-2.102-1.588
							c-0.143-1.02,0.567-1.963,1.585-2.105C235.844,195.454,236.785,196.165,236.928,197.185z"/>
					</g>
					<g>
						<g>
							<path style="fill:#BA68C8;" d="M245.624,172.662l-1.07,0.032c-0.228,0.007-0.417-0.179-0.425-0.407
								c-0.126-3.549-0.497-6.137-1.022-7.135c-2.306-4.377-6.723-9.72-8.399-9.485c-1.675,0.235-4.456,6.587-5.473,11.43
								c-0.231,1.106,0.123,3.697,0.976,7.142c0.055,0.222-0.076,0.452-0.297,0.509l-1.038,0.264
								c-0.224,0.057-0.454-0.089-0.51-0.313c-0.959-3.869-1.292-6.558-0.991-7.994c0.546-2.598,3.344-12.402,7.07-12.925
								c3.728-0.523,9.108,8.134,10.344,10.482c0.685,1.295,1.102,3.972,1.241,7.96
								C246.036,172.452,245.854,172.655,245.624,172.662z"/>
						</g>
					</g>
				</g>
				<g>
					<path style="fill:#BA68C8;" d="M268.981,160.673l-2.063-0.245c-0.55-12.252-1.842-22.786-4.658-28.925
						c-1.087-2.383-2.017-4.388-3.148-5.87c-0.076-0.111-0.162-0.222-0.248-0.333c-0.827-1.017-1.669-1.837-2.547-2.512
						c-0.381-0.308-0.783-0.585-1.183-0.851c-0.525-0.283-0.696-0.784-0.804-1.926c-0.03-0.299-0.059-0.587-0.089-0.854
						c3.018,1.403,7.101,4.806,9.966,11.832C268.625,141.807,268.792,156.311,268.981,160.673z"/>
					<path style="fill:#455A64;" d="M262.084,158.635c-0.217,3.356,2.323,6.253,5.674,6.471c3.351,0.218,6.243-2.326,6.46-5.683
						c0.217-3.356-2.323-6.253-5.674-6.471C265.193,152.735,262.301,155.279,262.084,158.635z"/>
					<path style="fill:#37474F;" d="M264.702,158.806c-0.124,1.908,1.321,3.555,3.226,3.679c1.905,0.124,3.549-1.323,3.673-3.23
						c0.123-1.908-1.321-3.555-3.226-3.679C266.47,155.451,264.826,156.898,264.702,158.806z"/>
				</g>
			</g>
			<g>
				<path id="Hand_00000171001248518569985250000006443167931239434112_" style="fill:#F0997A;" d="M363.318,168.986
					c-6.077,2.042-10.124,1.167-14.148,1.846c-3.226,0.545-5.455,2.21-9.032,4.54c0,0-9.098-11.81-1.716-19.031
					c2.832-1.165,6.391-2.981,8.509-4.295c1.366-0.847,3.085-4.709,3.897-6.033c1.376-2.242,3.616-3.898,5.602-5.561
					c1.346-1.127,2.514-2.442,3.809-3.625c0.431-0.394,0.91-1.019,1.528-0.703c0.582,0.296,1.101,1.097,1.069,2.168
					c-0.085,2.836-2.056,4.681-3.336,7.081c-0.097,0.182-0.19,0.406-0.088,0.586c0.132,0.231,0.467,0.206,0.727,0.15
					c2.198-0.475,4.778-1.058,7.038-0.721c0.253,0.038,0.507,0.094,0.733,0.214c1.427,0.761,1.698,3.189,1.784,4.617
					c0.125,2.094-0.312,4.186-1.191,6.087C365.628,162.526,363.318,168.986,363.318,168.986z"/>
				<g id="XMLID_00000147214168791886383720000007424150488966357665_">
					<polygon style="fill:#BA68C8;" points="372.894,121.016 319.628,135.494 300.773,196.211 301.84,197.53 352.558,182.745 
						373.962,122.335 					"/>
					<polygon style="opacity:0.35;" points="320.695,136.813 301.84,197.53 300.773,196.211 319.628,135.494 					"/>
					<polygon id="XMLID_00000181052676283952154820000004780500348415527355_" style="opacity:0.25;" points="373.961,122.335 
						320.695,136.813 301.84,197.53 352.558,182.745 					"/>
					<g id="XMLID_00000062157071536824200180000011985184022101195198_" style="opacity:0.1;">
						<path id="XMLID_00000019636876517531556800000014053183503904645530_" d="M357.389,133.832c0,0,0.26-0.913,0.581-2.04
							c0.321-1.126-2.77-0.751-6.904,0.839l-9.579,2.144c-4.133,1.59-8.012,2.715-8.333,3.841l-0.581,2.04L357.389,133.832z"/>
					</g>
					<g id="XMLID_00000167374693389227006580000017235917625998687672_">
						<path id="XMLID_00000042727661909377345990000000433883932356389048_" style="fill:#37474F;" d="M361.166,124.693
							c0.203-0.704-0.993-0.645-2.683-0.328l-3.065,0.797c0,0,1.44-2.912-5.777-1.519c-7.941,1.533-8.395,5.407-8.395,5.407
							s-0.921,0.372-3.841,1.087c-2.646,0.648-2.97,1.134-3.235,1.843l-0.48,1.285l27.149-7.364
							C360.84,125.901,360.963,125.397,361.166,124.693z"/>
					</g>
					<g id="XMLID_00000103951145227821468820000008895015166431212202_">
						<path id="XMLID_00000028284537059685328380000013727982969371679930_" style="fill:#37474F;" d="M358.091,128.46
							c-2.533,0.931-3.591,1.397-4.087,3.134c-0.567,1.983-0.717,2.816-0.717,2.816l-14.182,4.418c0,0,0.966-2.91,1.221-3.885
							c0.256-0.976-1.565-1.119-4.034-0.191l0.751-2.43l22.017-6.385L358.091,128.46z"/>
					</g>
					<g id="XMLID_00000034792419945619345030000017984997775589101710_">
						<path id="XMLID_00000054259167963027610110000006594755552175170468_" style="fill:#37474F;" d="M358.097,133.92
							c0,0,0.26-0.913,0.581-2.04c0.321-1.126-2.77-0.751-6.904,0.839l-9.579,2.144c-4.134,1.59-8.013,2.715-8.334,3.842
							l-0.581,2.039L358.097,133.92z"/>
					</g>
				</g>
				<g id="Hand_00000162342889488755327560000001733627740529575052_">
					<g>
						<path style="fill:#FFBDA7;" d="M372.834,149.664c1.767-2.469,1.603-2.797,0.644-4.057c-0.959-1.26-3.104-3.334-6.334-3.236
							c-2.172,0.066-4.366,0.025-5.486,0.603c-1.12,0.578-0.164,2.932,2.668,3.565c4.462,0.997,4.435,2.208,4.435,2.208
							s-4.11-0.913-5.759-1.005c-1.65-0.092-4.661,0.695-6.541,0.992c-1.88,0.298-2.25,2.722,0.94,3.555
							c0,0-2.373,0.381-3.446,0.553c-2.413,0.387-3.232,1.671-1.335,3.161c0.451,0.354,1.076,0.764,2.186,0.818
							c0,0-2.571-0.001-2.623,0.853c-0.15,2.448,1.439,3.089,6.635,4.592c1.458,0.422,3.316,2.252,4.052,2.857
							c0.836,0.971,0.779,2.355,0.45,3.863l4.393-2.487c1.301-0.899,2.269-2.597,1.68-4.625c0,0,2.83,0.053,3.001-1.695
							c0.171-1.748-0.688-3.747-0.688-3.747s1.66-0.82,1.556-2.902c-0.103-2.082-1.033-3.072-1.033-3.072L372.834,149.664z"/>
						<path style="fill:#F0997A;" d="M357.399,152.288c1.039-0.157,2.015-0.385,3.129-0.34c1.142,0.101,2.089,0.57,3.033,0.959
							c1.879,0.845,3.732,1.755,5.463,2.915c-2.03-0.503-3.939-1.258-5.822-2.077c-0.939-0.413-1.862-0.889-2.765-1.093
							C359.501,152.499,358.416,152.482,357.399,152.288z"/>
						<path style="fill:#F0997A;" d="M354.803,156.821c1.074-0.321,2.272-0.347,3.387-0.104c1.123,0.215,2.187,0.603,3.226,1.014
							c2.061,0.863,4.051,1.868,5.901,3.148c-2.158-0.627-4.203-1.476-6.246-2.303C359.023,157.752,357.06,156.864,354.803,156.821z
							"/>
					</g>
				</g>
			</g>
		</g>
	</g>
</g>
<g id="Speech_Bubble">
	<g id="Speech_Bubble_13_">
		<g id="Speech_Bubble_7_">
			<path id="XMLID_5247_" style="fill:#BA68C8;" d="M342.877,90.908l3.338-6.277l-2.686-7.753v-4.746l8.22,4.746v4.746l-3.534,6.121
				c-0.06,0.103-0.145,0.171-0.24,0.213l0.002,0.003L342.877,90.908z"/>
			<path id="XMLID_5246_" style="opacity:0.3;" d="M342.877,90.908l3.338-6.277l-2.686-7.753v-4.746l8.22,4.746v4.746l-3.534,6.121
				c-0.06,0.103-0.145,0.171-0.24,0.213l0.002,0.003L342.877,90.908z"/>
			<path id="XMLID_5242_" style="fill:#BA68C8;" d="M325.36,33.335c0-1.572,1.103-3.483,2.465-4.269l0.169-0.1
				c1.361-0.786,3.568-0.786,4.929,0l29.528,17.019c1.361,0.786,2.465,2.697,2.465,4.269v36.183c0,1.572-1.104,3.483-2.465,4.269
				l-0.169,0.101c-1.361,0.786-3.568,0.786-4.929,0l-10.764-6.193l-3.527,6.109c-0.225,0.391-0.806,0.335-0.953-0.091l-3.727-10.76
				l-10.557-6.084c-1.361-0.786-2.464-2.697-2.464-4.269L325.36,33.335z"/>
			<path id="XMLID_00000088826488549518163680000012730783132856645047_" style="opacity:0.3;fill:#FFFFFF;" d="M325.36,33.335
				c0-1.572,1.103-3.483,2.465-4.269l0.169-0.1c1.361-0.786,3.568-0.786,4.929,0l29.528,17.019c1.361,0.786,2.465,2.697,2.465,4.269
				v36.183c0,1.572-1.104,3.483-2.465,4.269l-0.169,0.101c-1.361,0.786-3.568,0.786-4.929,0l-10.764-6.193l-3.527,6.109
				c-0.225,0.391-0.806,0.335-0.953-0.091l-3.727-10.76l-10.557-6.084c-1.361-0.786-2.464-2.697-2.464-4.269L325.36,33.335z"/>
			<path id="XMLID_5238_" style="fill:#BA68C8;" d="M364.914,86.438c0,1.572-1.103,3.483-2.464,4.269l-0.169,0.1
				c-1.23,0.71-3.145,0.772-4.508,0.199c1.16,0.438,2.043-0.216,2.043-1.622l0-35.508c0-1.442,0.054-2.507-0.392-3.279l4.768-2.772
				c0.446,0.772,0.722,1.643,0.722,2.429V86.438z"/>
			<path id="XMLID_5237_" style="opacity:0.3;fill:#FFFFFF;" d="M325.44,32.635c0.287-1.046,1.242-1.38,2.38-0.724l29.533,17.023
				c0.678,0.391,1.629,0.883,2.066,1.665l4.765-2.769c-0.448-0.782-1.058-1.449-1.736-1.84l-29.522-17.023
				c-1.368-0.782-3.575-0.782-4.933,0l-0.174,0.103C326.659,29.737,325.682,31.232,325.44,32.635z"/>
		</g>
		<path style="fill:#FFFFFF;" d="M330.457,54.92c0,8.983,5.462,19.419,12.199,23.308c6.737,3.89,12.199-0.239,12.199-9.222
			c0-8.983-5.462-19.418-12.199-23.308C335.919,41.808,330.457,45.937,330.457,54.92z"/>
		<polygon style="fill:#BA68C8;" points="340.084,63.484 340.084,69.452 345.253,72.436 345.253,66.468 350.421,69.452 
			350.421,63.484 345.253,60.499 345.253,54.531 340.084,51.547 340.084,57.515 334.915,54.531 334.915,60.499 		"/>
	</g>
</g>
</svg>
